<svg xmlns="http://www.w3.org/2000/svg" xmlns:xlink="http://www.w3.org/1999/xlink" width="285pt" height="155pt" viewBox="0.00 0.00 285.00 155.00">
<g id="graph0" class="graph" transform="scale(1 1) rotate(0) translate(4 150.75)">
<title>G</title>
<polygon fill="white" stroke="none" points="-4,4 -4,-150.75 281.25,-150.75 281.25,4 -4,4"/>
<!-- compound -->
<g id="node1" class="node">
<title>compound</title>
<text xml:space="preserve" text-anchor="start" x="201" y="-133.1" font-family="Bitstream-Vera Sans" font-size="7.00">compound</text>
<polygon fill="none" stroke="black" points="166,-127.5 166,-129.5 268.25,-129.5 268.25,-127.5 166,-127.5"/>
<text xml:space="preserve" text-anchor="start" x="168" y="-118.85" font-family="Bitstream-Vera Sans" font-size="7.00">- id : INTEGER</text>
<text xml:space="preserve" text-anchor="start" x="168" y="-106.6" font-family="Bitstream-Vera Sans" font-size="7.00">- chembl_id : INTEGER</text>
<text xml:space="preserve" text-anchor="start" x="168" y="-94.35" font-family="Bitstream-Vera Sans" font-size="7.00">- sml : VARCHAR</text>
<text xml:space="preserve" text-anchor="start" x="168" y="-82.1" font-family="Bitstream-Vera Sans" font-size="7.00">- pref_name : VARCHAR</text>
<text xml:space="preserve" text-anchor="start" x="168" y="-69.85" font-family="Bitstream-Vera Sans" font-size="7.00">- molwt : FLOAT</text>
<text xml:space="preserve" text-anchor="start" x="168" y="-57.6" font-family="Bitstream-Vera Sans" font-size="7.00">- tpsa : FLOAT</text>
<text xml:space="preserve" text-anchor="start" x="168" y="-45.35" font-family="Bitstream-Vera Sans" font-size="7.00">- num_h_acceptors : INTEGER</text>
<text xml:space="preserve" text-anchor="start" x="168" y="-33.1" font-family="Bitstream-Vera Sans" font-size="7.00">- num_h_donors : INTEGER</text>
<text xml:space="preserve" text-anchor="start" x="168" y="-20.85" font-family="Bitstream-Vera Sans" font-size="7.00">- num_ro5 : INTEGER</text>
<text xml:space="preserve" text-anchor="start" x="168" y="-8.6" font-family="Bitstream-Vera Sans" font-size="7.00">- mol_logp : FLOAT</text>
<polygon fill="none" stroke="black" points="165,-4 165,-142.75 269.25,-142.75 269.25,-4 165,-4"/>
</g>
<!-- target -->
<g id="node2" class="node">
<title>target</title>
<text xml:space="preserve" text-anchor="start" x="51.5" y="-102.47" font-family="Bitstream-Vera Sans" font-size="7.00">target</text>
<polygon fill="none" stroke="black" points="9,-96.88 9,-98.88 112,-98.88 112,-96.88 9,-96.88"/>
<text xml:space="preserve" text-anchor="start" x="11" y="-88.22" font-family="Bitstream-Vera Sans" font-size="7.00">- id : INTEGER</text>
<text xml:space="preserve" text-anchor="start" x="11" y="-75.97" font-family="Bitstream-Vera Sans" font-size="7.00">- target_chembl_id : VARCHAR</text>
<text xml:space="preserve" text-anchor="start" x="11" y="-63.73" font-family="Bitstream-Vera Sans" font-size="7.00">- organism : VARCHAR</text>
<text xml:space="preserve" text-anchor="start" x="11" y="-51.48" font-family="Bitstream-Vera Sans" font-size="7.00">- pref_name : VARCHAR</text>
<text xml:space="preserve" text-anchor="start" x="11" y="-39.23" font-family="Bitstream-Vera Sans" font-size="7.00">- target_type : VARCHAR</text>
<polygon fill="none" stroke="black" points="8,-34.62 8,-112.12 113,-112.12 113,-34.62 8,-34.62"/>
</g>
<!-- target&#45;&gt;compound -->
<g id="edge1" class="edge">
<title>target-&gt;compound</title>
<path fill="none" stroke="black" d="M131.02,-73.38C136.34,-73.38 141.72,-73.38 147.05,-73.38"/>
<polygon fill="black" stroke="black" points="131.17,-73.38 121.17,-68.88 125.84,-73.38 121.51,-73.38 121.51,-73.38 121.51,-73.38 125.84,-73.38 121.17,-77.88 131.17,-73.38"/>
<polygon fill="black" stroke="black" points="146.86,-73.38 156.86,-77.88 152.2,-73.38 156.53,-73.38 156.53,-73.38 156.53,-73.38 152.2,-73.38 156.86,-68.88 146.86,-73.38"/>
<text xml:space="preserve" text-anchor="middle" x="134.54" y="-78.89" font-family="Times,serif" font-size="14.00">id</text>
<text xml:space="preserve" text-anchor="middle" x="143.5" y="-57.76" font-family="Times,serif" font-size="14.00">id</text>
</g>
</g>
</svg>