<svg xmlns="http://www.w3.org/2000/svg" xmlns:xlink="http://www.w3.org/1999/xlink" width="499pt" height="155pt" viewBox="0.00 0.00 499.00 155.00">
<g id="graph0" class="graph" transform="scale(1 1) rotate(0) translate(4 150.75)">
<title>G</title>
<polygon fill="white" stroke="none" points="-4,4 -4,-150.75 495.25,-150.75 495.25,4 -4,4"/>
<!-- compound -->
<g id="node1" class="node">
<title>compound</title>
<text xml:space="preserve" text-anchor="start" x="44" y="-133.1" font-family="Bitstream-Vera Sans" font-size="7.00">compound</text>
<polygon fill="none" stroke="black" points="9,-127.5 9,-129.5 111.25,-129.5 111.25,-127.5 9,-127.5"/>
<text xml:space="preserve" text-anchor="start" x="11" y="-118.85" font-family="Bitstream-Vera Sans" font-size="7.00">- id : INTEGER</text>
<text xml:space="preserve" text-anchor="start" x="11" y="-106.6" font-family="Bitstream-Vera Sans" font-size="7.00">- chembl_id : INTEGER</text>
<text xml:space="preserve" text-anchor="start" x="11" y="-94.35" font-family="Bitstream-Vera Sans" font-size="7.00">- sml : VARCHAR</text>
<text xml:space="preserve" text-anchor="start" x="11" y="-82.1" font-family="Bitstream-Vera Sans" font-size="7.00">- pref_name : VARCHAR</text>
<text xml:space="preserve" text-anchor="start" x="11" y="-69.85" font-family="Bitstream-Vera Sans" font-size="7.00">- molwt : FLOAT</text>
<text xml:space="preserve" text-anchor="start" x="11" y="-57.6" font-family="Bitstream-Vera Sans" font-size="7.00">- tpsa : FLOAT</text>
<text xml:space="preserve" text-anchor="start" x="11" y="-45.35" font-family="Bitstream-Vera Sans" font-size="7.00">- num_h_acceptors : INTEGER</text>
<text xml:space="preserve" text-anchor="start" x="11" y="-33.1" font-family="Bitstream-Vera Sans" font-size="7.00">- num_h_donors : INTEGER</text>
<text xml:space="preserve" text-anchor="start" x="11" y="-20.85" font-family="Bitstream-Vera Sans" font-size="7.00">- num_ro5 : INTEGER</text>
<text xml:space="preserve" text-anchor="start" x="11" y="-8.6" font-family="Bitstream-Vera Sans" font-size="7.00">- mol_logp : FLOAT</text>
<polygon fill="none" stroke="black" points="8,-4 8,-142.75 112.25,-142.75 112.25,-4 8,-4"/>
</g>
<!-- compound_target -->
<g id="node3" class="node">
<title>compound_target</title>
<text xml:space="preserve" text-anchor="start" x="218.25" y="-90.22" font-family="Bitstream-Vera Sans" font-size="7.00">compound_target</text>
<polygon fill="none" stroke="black" points="201.25,-84.62 201.25,-86.62 289.25,-86.62 289.25,-84.62 201.25,-84.62"/>
<text xml:space="preserve" text-anchor="start" x="203.25" y="-75.97" font-family="Bitstream-Vera Sans" font-size="7.00">- id : INTEGER</text>
<text xml:space="preserve" text-anchor="start" x="203.25" y="-63.73" font-family="Bitstream-Vera Sans" font-size="7.00">- compound_id : INTEGER</text>
<text xml:space="preserve" text-anchor="start" x="203.25" y="-51.48" font-family="Bitstream-Vera Sans" font-size="7.00">- target_id : INTEGER</text>
<polygon fill="none" stroke="black" points="200.25,-46.88 200.25,-99.88 290.25,-99.88 290.25,-46.88 200.25,-46.88"/>
</g>
<!-- compound&#45;&gt;compound_target -->
<!-- target -->
<g id="node2" class="node">
<title>target</title>
<text xml:space="preserve" text-anchor="start" x="421.75" y="-102.47" font-family="Bitstream-Vera Sans" font-size="7.00">target</text>
<polygon fill="none" stroke="black" points="379.25,-96.88 379.25,-98.88 482.25,-98.88 482.25,-96.88 379.25,-96.88"/>
<text xml:space="preserve" text-anchor="start" x="381.25" y="-88.22" font-family="Bitstream-Vera Sans" font-size="7.00">- id : INTEGER</text>
<text xml:space="preserve" text-anchor="start" x="381.25" y="-75.97" font-family="Bitstream-Vera Sans" font-size="7.00">- target_chembl_id : VARCHAR</text>
<text xml:space="preserve" text-anchor="start" x="381.25" y="-63.73" font-family="Bitstream-Vera Sans" font-size="7.00">- organism : VARCHAR</text>
<text xml:space="preserve" text-anchor="start" x="381.25" y="-51.48" font-family="Bitstream-Vera Sans" font-size="7.00">- pref_name : VARCHAR</text>
<text xml:space="preserve" text-anchor="start" x="381.25" y="-39.23" font-family="Bitstream-Vera Sans" font-size="7.00">- target_type : VARCHAR</text>
<polygon fill="none" stroke="black" points="378.25,-34.62 378.25,-112.12 483.25,-112.12 483.25,-34.62 378.25,-34.62"/>
</g>
<!-- target&#45;&gt;compound_target -->
<!-- compound_target&#45;&gt;compound -->
<g id="edge2" class="edge">
<title>compound_target-&gt;compound</title>
<path fill="none" stroke="black" d="M182.25,-83.54C182.25,-83.54 128.99,-83.54 128.99,-83.54"/>
<polygon fill="black" stroke="black" points="182.36,-83.54 192.36,-88.04 187.7,-83.54 192.03,-83.54 192.03,-83.54 192.03,-83.54 187.7,-83.54 192.36,-79.04 182.36,-83.54"/>
<ellipse fill="none" stroke="black" cx="124.49" cy="-83.54" rx="4" ry="4"/>
<text xml:space="preserve" text-anchor="middle" x="142.65" y="-70.45" font-family="Bitstream-Vera Sans" font-size="7.00">id</text>
<text xml:space="preserve" text-anchor="middle" x="170.04" y="-91.58" font-family="Bitstream-Vera Sans" font-size="7.00">compound_id</text>
</g>
<!-- compound_target&#45;&gt;target -->
<g id="edge1" class="edge">
<title>compound_target-&gt;target</title>
<path fill="none" stroke="black" d="M308.35,-83.54C308.35,-83.54 361.43,-83.54 361.43,-83.54"/>
<polygon fill="black" stroke="black" points="308.25,-83.54 298.25,-79.04 302.91,-83.54 298.58,-83.54 298.58,-83.54 298.58,-83.54 302.91,-83.54 298.25,-88.04 308.25,-83.54"/>
<ellipse fill="none" stroke="black" cx="365.93" cy="-83.54" rx="4" ry="4"/>
<text xml:space="preserve" text-anchor="middle" x="347.77" y="-91.58" font-family="Bitstream-Vera Sans" font-size="7.00">id</text>
<text xml:space="preserve" text-anchor="middle" x="320.57" y="-70.45" font-family="Bitstream-Vera Sans" font-size="7.00">target_id</text>
</g>
</g>
</svg>