<svg xmlns="http://www.w3.org/2000/svg" xmlns:xlink="http://www.w3.org/1999/xlink" width="484pt" height="45pt" viewBox="0.00 0.00 484.00 45.00">
<g id="graph0" class="graph" transform="scale(1 1) rotate(0) translate(4 41)">
<polygon fill="white" stroke="none" points="-4,4 -4,-41 479.5,-41 479.5,4 -4,4"/>
<!-- Compound -->
<g id="node1" class="node">
<title>Compound</title>
<polygon fill="#a3c1da" stroke="black" points="0,-0.5 0,-36.5 155.75,-36.5 155.75,-0.5 0,-0.5"/>
<text xml:space="preserve" text-anchor="middle" x="30.88" y="-15" font-family="Times,serif" font-size="10.00">Compound</text>
<polyline fill="none" stroke="black" points="61.75,-1.25 61.75,-36.5"/>
<text xml:space="preserve" text-anchor="middle" x="108.75" y="-15" font-family="Times,serif" font-size="10.00">compound_id (PK)</text>
</g>
<!-- Activity -->
<g id="node2" class="node">
<title>Activity</title>
<polygon fill="#a3c1da" stroke="black" points="191.75,-0.5 191.75,-36.5 324.25,-36.5 324.25,-0.5 191.75,-0.5"/>
<text xml:space="preserve" text-anchor="middle" x="217" y="-15" font-family="Times,serif" font-size="10.00">Activity</text>
<polyline fill="none" stroke="black" points="242.25,-1.25 242.25,-36.5"/>
<text xml:space="preserve" text-anchor="middle" x="283.25" y="-15" font-family="Times,serif" font-size="10.00">activity_id (PK)</text>
</g>
<!-- Compound&#45;&gt;Activity -->
<g id="edge1" class="edge">
<title>Compound-&gt;Activity</title>
<path fill="none" stroke="black" d="M160.54,-18.5C160.54,-18.5 186.97,-18.5 186.97,-18.5"/>
<polygon fill="black" stroke="black" points="160.43,-18.5 156.43,-16.7 158.09,-18.5 156.76,-18.5 156.76,-18.5 156.76,-18.5 158.09,-18.5 156.43,-20.3 160.43,-18.5"/>
<polygon fill="black" stroke="black" points="187.08,-18.5 191.08,-20.3 189.41,-18.5 190.74,-18.5 190.74,-18.5 190.74,-18.5 189.41,-18.5 191.08,-16.7 187.08,-18.5"/>
</g>
<!-- Target -->
<g id="node3" class="node">
<title>Target</title>
<polygon fill="#a3c1da" stroke="black" points="360.25,-0.5 360.25,-36.5 475.5,-36.5 475.5,-0.5 360.25,-0.5"/>
<text xml:space="preserve" text-anchor="middle" x="381" y="-15" font-family="Times,serif" font-size="10.00">Target</text>
<polyline fill="none" stroke="black" points="401.75,-1.25 401.75,-36.5"/>
<text xml:space="preserve" text-anchor="middle" x="438.62" y="-15" font-family="Times,serif" font-size="10.00">target_id (PK)</text>
</g>
<!-- Activity&#45;&gt;Target -->
<g id="edge2" class="edge">
<title>Activity-&gt;Target</title>
<path fill="none" stroke="black" d="M328.85,-18.5C328.85,-18.5 355.38,-18.5 355.38,-18.5"/>
<polygon fill="black" stroke="black" points="328.75,-18.5 324.75,-16.7 326.41,-18.5 325.08,-18.5 325.08,-18.5 325.08,-18.5 326.41,-18.5 324.75,-20.3 328.75,-18.5"/>
<polygon fill="black" stroke="black" points="355.49,-18.5 359.49,-20.3 357.82,-18.5 359.15,-18.5 359.15,-18.5 359.15,-18.5 357.82,-18.5 359.49,-16.7 355.49,-18.5"/>
</g>
</g>
</svg>