<svg xmlns="http://www.w3.org/2000/svg" xmlns:rdkit="http://www.rdkit.org/xml" xmlns:xlink="http://www.w3.org/1999/xlink" version="1.1" baseProfile="full" xml:space="preserve" width="600px" height="400px" viewBox="0 0 600 400">
<!-- END OF HEADER -->
<rect style="opacity:1.0;fill:#FFFFFF;stroke:none" width="600.0" height="400.0" x="0.0" y="0.0"> </rect>
<path class="bond-0 atom-0 atom-1" d="M 51.5,96.9 L 45.5,70.9" style="fill:none;fill-rule:evenodd;stroke:#000000;stroke-width:2.0px;stroke-linecap:butt;stroke-linejoin:miter;stroke-opacity:1"/>
<path class="bond-0 atom-0 atom-1" d="M 54.9,93.7 L 49.9,72.2" style="fill:none;fill-rule:evenodd;stroke:#000000;stroke-width:2.0px;stroke-linecap:butt;stroke-linejoin:miter;stroke-opacity:1"/>
<path class="bond-1 atom-1 atom-2" d="M 45.5,70.9 L 34.9,67.7" style="fill:none;fill-rule:evenodd;stroke:#000000;stroke-width:2.0px;stroke-linecap:butt;stroke-linejoin:miter;stroke-opacity:1"/>
<path class="bond-1 atom-1 atom-2" d="M 34.9,67.7 L 24.4,64.4" style="fill:none;fill-rule:evenodd;stroke:#FF0000;stroke-width:2.0px;stroke-linecap:butt;stroke-linejoin:miter;stroke-opacity:1"/>
<path class="bond-2 atom-1 atom-3" d="M 45.5,70.9 L 65.0,52.7" style="fill:none;fill-rule:evenodd;stroke:#000000;stroke-width:2.0px;stroke-linecap:butt;stroke-linejoin:miter;stroke-opacity:1"/>
<path class="bond-3 atom-3 atom-4" d="M 65.0,52.7 L 75.9,56.0" style="fill:none;fill-rule:evenodd;stroke:#000000;stroke-width:2.0px;stroke-linecap:butt;stroke-linejoin:miter;stroke-opacity:1"/>
<path class="bond-3 atom-3 atom-4" d="M 75.9,56.0 L 86.8,59.3" style="fill:none;fill-rule:evenodd;stroke:#0000FF;stroke-width:2.0px;stroke-linecap:butt;stroke-linejoin:miter;stroke-opacity:1"/>
<path class="bond-3 atom-3 atom-4" d="M 66.1,57.2 L 75.8,60.2" style="fill:none;fill-rule:evenodd;stroke:#000000;stroke-width:2.0px;stroke-linecap:butt;stroke-linejoin:miter;stroke-opacity:1"/>
<path class="bond-3 atom-3 atom-4" d="M 75.8,60.2 L 85.6,63.2" style="fill:none;fill-rule:evenodd;stroke:#0000FF;stroke-width:2.0px;stroke-linecap:butt;stroke-linejoin:miter;stroke-opacity:1"/>
<path class="bond-4 atom-4 atom-5" d="M 91.6,65.1 L 94.1,75.8" style="fill:none;fill-rule:evenodd;stroke:#0000FF;stroke-width:2.0px;stroke-linecap:butt;stroke-linejoin:miter;stroke-opacity:1"/>
<path class="bond-4 atom-4 atom-5" d="M 94.1,75.8 L 96.6,86.5" style="fill:none;fill-rule:evenodd;stroke:#000000;stroke-width:2.0px;stroke-linecap:butt;stroke-linejoin:miter;stroke-opacity:1"/>
<path class="bond-5 atom-5 atom-6" d="M 96.6,86.5 L 107.4,89.8" style="fill:none;fill-rule:evenodd;stroke:#000000;stroke-width:2.0px;stroke-linecap:butt;stroke-linejoin:miter;stroke-opacity:1"/>
<path class="bond-5 atom-5 atom-6" d="M 107.4,89.8 L 118.3,93.1" style="fill:none;fill-rule:evenodd;stroke:#0000FF;stroke-width:2.0px;stroke-linecap:butt;stroke-linejoin:miter;stroke-opacity:1"/>
<path class="bond-6 atom-6 atom-7" d="M 125.8,90.8 L 133.7,83.4" style="fill:none;fill-rule:evenodd;stroke:#0000FF;stroke-width:2.0px;stroke-linecap:butt;stroke-linejoin:miter;stroke-opacity:1"/>
<path class="bond-6 atom-6 atom-7" d="M 133.7,83.4 L 141.6,76.0" style="fill:none;fill-rule:evenodd;stroke:#000000;stroke-width:2.0px;stroke-linecap:butt;stroke-linejoin:miter;stroke-opacity:1"/>
<path class="bond-7 atom-7 atom-8" d="M 141.6,76.0 L 167.1,83.8" style="fill:none;fill-rule:evenodd;stroke:#000000;stroke-width:2.0px;stroke-linecap:butt;stroke-linejoin:miter;stroke-opacity:1"/>
<path class="bond-8 atom-8 atom-9" d="M 167.1,83.8 L 186.6,65.6" style="fill:none;fill-rule:evenodd;stroke:#000000;stroke-width:2.0px;stroke-linecap:butt;stroke-linejoin:miter;stroke-opacity:1"/>
<path class="bond-9 atom-5 atom-10" d="M 96.6,86.5 L 77.1,104.7" style="fill:none;fill-rule:evenodd;stroke:#000000;stroke-width:2.0px;stroke-linecap:butt;stroke-linejoin:miter;stroke-opacity:1"/>
<path class="bond-9 atom-5 atom-10" d="M 92.1,85.1 L 76.0,100.2" style="fill:none;fill-rule:evenodd;stroke:#000000;stroke-width:2.0px;stroke-linecap:butt;stroke-linejoin:miter;stroke-opacity:1"/>
<path class="bond-10 atom-10 atom-11" d="M 77.1,104.7 L 83.1,130.6" style="fill:none;fill-rule:evenodd;stroke:#000000;stroke-width:2.0px;stroke-linecap:butt;stroke-linejoin:miter;stroke-opacity:1"/>
<path class="bond-11 atom-10 atom-0" d="M 77.1,104.7 L 51.5,96.9" style="fill:none;fill-rule:evenodd;stroke:#000000;stroke-width:2.0px;stroke-linecap:butt;stroke-linejoin:miter;stroke-opacity:1"/>
<path d="M 51.2,95.6 L 51.5,96.9 L 52.8,97.3" style="fill:none;stroke:#000000;stroke-width:2.0px;stroke-linecap:butt;stroke-linejoin:miter;stroke-opacity:1;"/>
<path d="M 64.1,53.6 L 65.0,52.7 L 65.6,52.9" style="fill:none;stroke:#000000;stroke-width:2.0px;stroke-linecap:butt;stroke-linejoin:miter;stroke-opacity:1;"/>
<path d="M 141.2,76.4 L 141.6,76.0 L 142.8,76.4" style="fill:none;stroke:#000000;stroke-width:2.0px;stroke-linecap:butt;stroke-linejoin:miter;stroke-opacity:1;"/>
<path d="M 165.8,83.4 L 167.1,83.8 L 168.0,82.9" style="fill:none;stroke:#000000;stroke-width:2.0px;stroke-linecap:butt;stroke-linejoin:miter;stroke-opacity:1;"/>
<path class="atom-2" d="M 9.1 59.4 L 10.1 59.4 L 10.1 62.6 L 14.0 62.6 L 14.0 59.4 L 15.0 59.4 L 15.0 66.9 L 14.0 66.9 L 14.0 63.4 L 10.1 63.4 L 10.1 66.9 L 9.1 66.9 L 9.1 59.4 " fill="#FF0000"/>
<path class="atom-2" d="M 16.6 63.1 Q 16.6 61.3, 17.4 60.3 Q 18.3 59.3, 20.0 59.3 Q 21.7 59.3, 22.6 60.3 Q 23.5 61.3, 23.5 63.1 Q 23.5 65.0, 22.6 66.0 Q 21.7 67.0, 20.0 67.0 Q 18.4 67.0, 17.4 66.0 Q 16.6 65.0, 16.6 63.1 M 20.0 66.2 Q 21.2 66.2, 21.8 65.4 Q 22.4 64.6, 22.4 63.1 Q 22.4 61.6, 21.8 60.9 Q 21.2 60.1, 20.0 60.1 Q 18.9 60.1, 18.2 60.9 Q 17.6 61.6, 17.6 63.1 Q 17.6 64.7, 18.2 65.4 Q 18.9 66.2, 20.0 66.2 " fill="#FF0000"/>
<path class="atom-4" d="M 88.9 56.7 L 91.3 60.7 Q 91.6 61.1, 92.0 61.8 Q 92.4 62.5, 92.4 62.6 L 92.4 56.7 L 93.4 56.7 L 93.4 64.3 L 92.4 64.3 L 89.7 59.9 Q 89.4 59.4, 89.1 58.8 Q 88.7 58.2, 88.7 58.0 L 88.7 64.3 L 87.7 64.3 L 87.7 56.7 L 88.9 56.7 " fill="#0000FF"/>
<path class="atom-6" d="M 120.4 90.5 L 122.9 94.5 Q 123.1 94.9, 123.5 95.6 Q 123.9 96.3, 123.9 96.3 L 123.9 90.5 L 124.9 90.5 L 124.9 98.0 L 123.9 98.0 L 121.2 93.6 Q 120.9 93.1, 120.6 92.5 Q 120.3 92.0, 120.2 91.8 L 120.2 98.0 L 119.2 98.0 L 119.2 90.5 L 120.4 90.5 " fill="#0000FF"/>
<path class="atom-6" d="M 119.1 98.8 L 120.1 98.8 L 120.1 102.0 L 124.0 102.0 L 124.0 98.8 L 125.0 98.8 L 125.0 106.3 L 124.0 106.3 L 124.0 102.8 L 120.1 102.8 L 120.1 106.3 L 119.1 106.3 L 119.1 98.8 " fill="#0000FF"/>
<path class="note" d="M 48.3 101.9 Q 47.6 101.9, 47.3 101.4 Q 46.9 100.8, 46.9 99.9 Q 46.9 99.0, 47.3 98.5 Q 47.6 98.0, 48.3 98.0 Q 49.0 98.0, 49.3 98.5 Q 49.7 99.0, 49.7 99.9 Q 49.7 100.8, 49.3 101.4 Q 49.0 101.9, 48.3 101.9 M 48.3 101.4 Q 48.7 101.4, 48.9 101.1 Q 49.1 100.7, 49.1 99.9 Q 49.1 99.2, 48.9 98.8 Q 48.7 98.4, 48.3 98.4 Q 47.9 98.4, 47.7 98.8 Q 47.4 99.2, 47.4 99.9 Q 47.4 100.7, 47.7 101.1 Q 47.9 101.4, 48.3 101.4 " fill="#000000"/>
<path class="note" d="M 41.3 75.4 L 42.2 75.4 L 42.2 72.6 L 41.3 72.9 L 41.1 72.5 L 42.3 72.0 L 42.7 72.1 L 42.7 75.4 L 43.4 75.4 L 43.4 75.8 L 41.3 75.8 L 41.3 75.4 " fill="#000000"/>
<path class="note" d="M 16.8 53.3 Q 16.9 52.9, 17.2 52.7 Q 17.6 52.5, 18.0 52.5 Q 18.6 52.5, 18.9 52.8 Q 19.2 53.2, 19.2 53.7 Q 19.2 54.3, 18.8 54.8 Q 18.4 55.3, 17.5 55.9 L 19.3 55.9 L 19.3 56.4 L 16.7 56.4 L 16.7 56.0 Q 17.4 55.5, 17.9 55.1 Q 18.3 54.8, 18.5 54.4 Q 18.7 54.1, 18.7 53.7 Q 18.7 53.4, 18.5 53.2 Q 18.3 53.0, 18.0 53.0 Q 17.7 53.0, 17.5 53.1 Q 17.3 53.2, 17.2 53.5 L 16.8 53.3 " fill="#000000"/>
<path class="note" d="M 64.6 48.3 Q 64.9 48.4, 65.1 48.6 Q 65.3 48.9, 65.3 49.2 Q 65.3 49.6, 65.1 49.8 Q 65.0 50.1, 64.7 50.2 Q 64.4 50.3, 64.0 50.3 Q 63.6 50.3, 63.3 50.2 Q 63.0 50.0, 62.8 49.8 L 63.1 49.4 Q 63.3 49.7, 63.5 49.8 Q 63.7 49.9, 64.0 49.9 Q 64.3 49.9, 64.6 49.7 Q 64.8 49.5, 64.8 49.2 Q 64.8 48.8, 64.5 48.7 Q 64.3 48.5, 63.9 48.5 L 63.6 48.5 L 63.6 48.1 L 63.8 48.1 Q 64.2 48.1, 64.5 47.9 Q 64.7 47.8, 64.7 47.4 Q 64.7 47.2, 64.5 47.0 Q 64.3 46.9, 64.0 46.9 Q 63.7 46.9, 63.5 47.0 Q 63.3 47.1, 63.2 47.4 L 62.8 47.2 Q 62.9 46.9, 63.2 46.7 Q 63.6 46.5, 64.0 46.5 Q 64.6 46.5, 64.9 46.7 Q 65.2 47.0, 65.2 47.4 Q 65.2 47.7, 65.0 47.9 Q 64.9 48.2, 64.6 48.3 " fill="#000000"/>
<path class="note" d="M 98.0 55.0 L 98.5 55.0 L 98.5 55.4 L 98.0 55.4 L 98.0 56.3 L 97.5 56.3 L 97.5 55.4 L 95.6 55.4 L 95.6 55.1 L 97.2 52.5 L 98.0 52.5 L 98.0 55.0 M 96.2 55.0 L 97.5 55.0 L 97.5 52.9 L 96.2 55.0 " fill="#000000"/>
<path class="note" d="M 99.9 83.0 Q 100.2 83.0, 100.5 83.1 Q 100.8 83.2, 100.9 83.5 Q 101.1 83.8, 101.1 84.1 Q 101.1 84.5, 100.9 84.8 Q 100.7 85.1, 100.4 85.2 Q 100.1 85.4, 99.7 85.4 Q 99.4 85.4, 99.1 85.2 Q 98.7 85.1, 98.5 84.9 L 98.8 84.5 Q 99.0 84.7, 99.3 84.8 Q 99.5 84.9, 99.7 84.9 Q 100.1 84.9, 100.3 84.7 Q 100.5 84.5, 100.5 84.1 Q 100.5 83.7, 100.3 83.5 Q 100.1 83.4, 99.7 83.4 Q 99.4 83.4, 99.0 83.5 L 98.7 83.4 L 98.9 81.5 L 100.8 81.5 L 100.8 82.0 L 99.3 82.0 L 99.2 83.1 Q 99.6 83.0, 99.9 83.0 " fill="#000000"/>
<path class="note" d="M 120.2 85.1 Q 120.6 85.1, 120.8 85.3 Q 121.1 85.4, 121.2 85.7 Q 121.4 85.9, 121.4 86.3 Q 121.4 86.6, 121.2 86.9 Q 121.0 87.2, 120.8 87.4 Q 120.5 87.5, 120.1 87.5 Q 119.4 87.5, 119.1 87.1 Q 118.7 86.6, 118.7 85.7 Q 118.7 84.7, 119.2 84.2 Q 119.6 83.7, 120.4 83.7 Q 120.6 83.7, 120.8 83.7 Q 121.0 83.8, 121.2 83.9 L 121.0 84.3 Q 120.7 84.1, 120.4 84.1 Q 119.9 84.1, 119.6 84.4 Q 119.3 84.8, 119.3 85.5 Q 119.5 85.3, 119.7 85.2 Q 120.0 85.1, 120.2 85.1 M 120.1 87.1 Q 120.3 87.1, 120.5 87.0 Q 120.6 86.9, 120.7 86.7 Q 120.8 86.5, 120.8 86.3 Q 120.8 85.9, 120.6 85.8 Q 120.5 85.6, 120.1 85.6 Q 119.9 85.6, 119.7 85.7 Q 119.4 85.7, 119.3 85.9 Q 119.3 86.5, 119.5 86.8 Q 119.7 87.1, 120.1 87.1 " fill="#000000"/>
<path class="note" d="M 141.3 70.3 L 139.3 70.3 L 139.3 69.8 L 141.8 69.8 L 141.8 70.2 L 140.3 73.6 L 139.8 73.6 L 141.3 70.3 " fill="#000000"/>
<path class="note" d="M 168.7 88.1 Q 169.0 88.2, 169.2 88.4 Q 169.4 88.7, 169.4 89.0 Q 169.4 89.4, 169.2 89.6 Q 169.1 89.9, 168.8 90.0 Q 168.5 90.1, 168.1 90.1 Q 167.5 90.1, 167.1 89.8 Q 166.7 89.5, 166.7 89.0 Q 166.7 88.7, 166.9 88.5 Q 167.1 88.3, 167.4 88.1 Q 167.1 87.9, 167.0 87.7 Q 166.9 87.5, 166.9 87.2 Q 166.9 86.8, 167.2 86.5 Q 167.5 86.3, 168.1 86.3 Q 168.6 86.3, 168.9 86.5 Q 169.3 86.8, 169.3 87.2 Q 169.3 87.5, 169.1 87.7 Q 169.0 87.9, 168.7 88.1 M 168.1 86.7 Q 167.8 86.7, 167.6 86.8 Q 167.4 87.0, 167.4 87.2 Q 167.4 87.4, 167.5 87.5 Q 167.6 87.7, 167.8 87.8 Q 168.0 87.8, 168.3 87.9 Q 168.5 87.8, 168.6 87.6 Q 168.7 87.4, 168.7 87.2 Q 168.7 87.0, 168.6 86.8 Q 168.4 86.7, 168.1 86.7 M 168.1 89.7 Q 168.4 89.7, 168.7 89.5 Q 168.9 89.3, 168.9 89.0 Q 168.9 88.8, 168.8 88.7 Q 168.6 88.6, 168.5 88.5 Q 168.3 88.4, 168.0 88.3 L 167.8 88.2 Q 167.5 88.4, 167.4 88.6 Q 167.3 88.8, 167.3 89.0 Q 167.3 89.3, 167.5 89.5 Q 167.7 89.7, 168.1 89.7 " fill="#000000"/>
<path class="note" d="M 189.6 67.0 Q 190.2 67.0, 190.6 67.4 Q 190.9 67.9, 190.9 68.8 Q 190.9 69.8, 190.5 70.3 Q 190.1 70.8, 189.3 70.8 Q 189.0 70.8, 188.8 70.8 Q 188.6 70.7, 188.4 70.6 L 188.6 70.3 Q 188.9 70.4, 189.3 70.4 Q 189.8 70.4, 190.1 70.1 Q 190.3 69.7, 190.4 69.0 Q 190.2 69.2, 189.9 69.3 Q 189.7 69.4, 189.4 69.4 Q 189.1 69.4, 188.8 69.2 Q 188.6 69.1, 188.4 68.8 Q 188.3 68.6, 188.3 68.2 Q 188.3 67.9, 188.4 67.6 Q 188.6 67.3, 188.9 67.1 Q 189.2 67.0, 189.6 67.0 M 188.8 68.2 Q 188.8 68.6, 189.0 68.8 Q 189.2 68.9, 189.5 68.9 Q 189.8 68.9, 190.0 68.9 Q 190.2 68.8, 190.4 68.6 Q 190.3 68.0, 190.2 67.7 Q 190.0 67.4, 189.6 67.4 Q 189.4 67.4, 189.2 67.5 Q 189.0 67.6, 188.9 67.8 Q 188.8 68.0, 188.8 68.2 " fill="#000000"/>
<path class="note" d="M 83.0 108.7 L 83.8 108.7 L 83.8 105.9 L 82.9 106.2 L 82.8 105.9 L 84.0 105.4 L 84.3 105.4 L 84.3 108.7 L 85.1 108.7 L 85.1 109.2 L 83.0 109.2 L 83.0 108.7 " fill="#000000"/>
<path class="note" d="M 86.9 109.2 Q 86.2 109.2, 85.9 108.7 Q 85.6 108.2, 85.6 107.3 Q 85.6 106.4, 85.9 105.9 Q 86.2 105.3, 86.9 105.3 Q 87.6 105.3, 88.0 105.9 Q 88.3 106.4, 88.3 107.3 Q 88.3 108.2, 88.0 108.7 Q 87.6 109.2, 86.9 109.2 M 86.9 108.8 Q 87.3 108.8, 87.6 108.4 Q 87.8 108.0, 87.8 107.3 Q 87.8 106.5, 87.6 106.2 Q 87.3 105.8, 86.9 105.8 Q 86.5 105.8, 86.3 106.2 Q 86.1 106.5, 86.1 107.3 Q 86.1 108.0, 86.3 108.4 Q 86.5 108.8, 86.9 108.8 " fill="#000000"/>
<path class="note" d="M 76.4 133.1 L 77.3 133.1 L 77.3 130.3 L 76.4 130.6 L 76.2 130.3 L 77.4 129.8 L 77.8 129.8 L 77.8 133.1 L 78.5 133.1 L 78.5 133.5 L 76.4 133.5 L 76.4 133.1 " fill="#000000"/>
<path class="note" d="M 79.2 133.1 L 80.0 133.1 L 80.0 130.3 L 79.1 130.6 L 79.0 130.3 L 80.1 129.8 L 80.5 129.8 L 80.5 133.1 L 81.2 133.1 L 81.2 133.5 L 79.2 133.5 L 79.2 133.1 " fill="#000000"/>
<path class="legend" d="M 98.8 186.6 Q 100.2 186.6, 100.9 187.4 Q 101.6 188.1, 101.6 189.6 L 101.6 195.0 L 100.1 195.0 L 100.1 189.7 Q 100.1 188.7, 99.8 188.3 Q 99.4 187.8, 98.6 187.8 Q 97.8 187.8, 97.2 188.2 Q 96.6 188.5, 96.2 189.1 Q 96.2 189.3, 96.2 189.6 L 96.2 195.0 L 94.7 195.0 L 94.7 189.7 Q 94.7 188.7, 94.4 188.3 Q 94.0 187.8, 93.2 187.8 Q 92.4 187.8, 91.8 188.2 Q 91.2 188.5, 90.8 189.1 L 90.8 195.0 L 89.3 195.0 L 89.3 186.8 L 90.6 186.8 L 90.7 187.9 Q 91.8 186.6, 93.4 186.6 Q 95.4 186.6, 96.0 188.1 Q 97.1 186.6, 98.8 186.6 " fill="#000000"/>
<path class="legend" d="M 104.5 193.7 L 106.9 193.7 L 106.9 185.3 L 104.2 186.1 L 103.8 185.2 L 107.3 183.6 L 108.4 183.8 L 108.4 193.7 L 110.7 193.7 L 110.7 195.0 L 104.5 195.0 L 104.5 193.7 " fill="#000000"/>
<path class="bond-0 atom-0 atom-1" d="M 347.5,91.9 L 336.1,91.9" style="fill:none;fill-rule:evenodd;stroke:#0000FF;stroke-width:2.0px;stroke-linecap:butt;stroke-linejoin:miter;stroke-opacity:1"/>
<path class="bond-0 atom-0 atom-1" d="M 336.1,91.9 L 324.6,91.9" style="fill:none;fill-rule:evenodd;stroke:#000000;stroke-width:2.0px;stroke-linecap:butt;stroke-linejoin:miter;stroke-opacity:1"/>
<path class="bond-1 atom-1 atom-2" d="M 324.6,91.9 L 311.3,115.0" style="fill:none;fill-rule:evenodd;stroke:#000000;stroke-width:2.0px;stroke-linecap:butt;stroke-linejoin:miter;stroke-opacity:1"/>
<path class="bond-1 atom-1 atom-2" d="M 320.0,91.9 L 309.0,111.0" style="fill:none;fill-rule:evenodd;stroke:#000000;stroke-width:2.0px;stroke-linecap:butt;stroke-linejoin:miter;stroke-opacity:1"/>
<path class="bond-2 atom-2 atom-3" d="M 311.3,115.0 L 284.6,115.0" style="fill:none;fill-rule:evenodd;stroke:#000000;stroke-width:2.0px;stroke-linecap:butt;stroke-linejoin:miter;stroke-opacity:1"/>
<path class="bond-3 atom-3 atom-4" d="M 284.6,115.0 L 271.3,91.9" style="fill:none;fill-rule:evenodd;stroke:#000000;stroke-width:2.0px;stroke-linecap:butt;stroke-linejoin:miter;stroke-opacity:1"/>
<path class="bond-3 atom-3 atom-4" d="M 286.9,111.0 L 275.9,91.9" style="fill:none;fill-rule:evenodd;stroke:#000000;stroke-width:2.0px;stroke-linecap:butt;stroke-linejoin:miter;stroke-opacity:1"/>
<path class="bond-4 atom-4 atom-5" d="M 271.3,91.9 L 260.1,91.9" style="fill:none;fill-rule:evenodd;stroke:#000000;stroke-width:2.0px;stroke-linecap:butt;stroke-linejoin:miter;stroke-opacity:1"/>
<path class="bond-4 atom-4 atom-5" d="M 260.1,91.9 L 248.9,91.9" style="fill:none;fill-rule:evenodd;stroke:#FF0000;stroke-width:2.0px;stroke-linecap:butt;stroke-linejoin:miter;stroke-opacity:1"/>
<path class="bond-5 atom-4 atom-6" d="M 271.3,91.9 L 284.6,68.8" style="fill:none;fill-rule:evenodd;stroke:#000000;stroke-width:2.0px;stroke-linecap:butt;stroke-linejoin:miter;stroke-opacity:1"/>
<path class="bond-6 atom-6 atom-7" d="M 284.6,68.8 L 296.1,68.8" style="fill:none;fill-rule:evenodd;stroke:#000000;stroke-width:2.0px;stroke-linecap:butt;stroke-linejoin:miter;stroke-opacity:1"/>
<path class="bond-6 atom-6 atom-7" d="M 296.1,68.8 L 307.5,68.8" style="fill:none;fill-rule:evenodd;stroke:#0000FF;stroke-width:2.0px;stroke-linecap:butt;stroke-linejoin:miter;stroke-opacity:1"/>
<path class="bond-6 atom-6 atom-7" d="M 286.9,72.8 L 297.2,72.8" style="fill:none;fill-rule:evenodd;stroke:#000000;stroke-width:2.0px;stroke-linecap:butt;stroke-linejoin:miter;stroke-opacity:1"/>
<path class="bond-6 atom-6 atom-7" d="M 297.2,72.8 L 307.5,72.8" style="fill:none;fill-rule:evenodd;stroke:#0000FF;stroke-width:2.0px;stroke-linecap:butt;stroke-linejoin:miter;stroke-opacity:1"/>
<path class="bond-7 atom-7 atom-1" d="M 314.0,73.4 L 319.3,82.7" style="fill:none;fill-rule:evenodd;stroke:#0000FF;stroke-width:2.0px;stroke-linecap:butt;stroke-linejoin:miter;stroke-opacity:1"/>
<path class="bond-7 atom-7 atom-1" d="M 319.3,82.7 L 324.6,91.9" style="fill:none;fill-rule:evenodd;stroke:#000000;stroke-width:2.0px;stroke-linecap:butt;stroke-linejoin:miter;stroke-opacity:1"/>
<path d="M 311.9,113.8 L 311.3,115.0 L 309.9,115.0" style="fill:none;stroke:#000000;stroke-width:2.0px;stroke-linecap:butt;stroke-linejoin:miter;stroke-opacity:1;"/>
<path d="M 285.9,115.0 L 284.6,115.0 L 283.9,113.8" style="fill:none;stroke:#000000;stroke-width:2.0px;stroke-linecap:butt;stroke-linejoin:miter;stroke-opacity:1;"/>
<path d="M 283.9,69.9 L 284.6,68.8 L 285.2,68.8" style="fill:none;stroke:#000000;stroke-width:2.0px;stroke-linecap:butt;stroke-linejoin:miter;stroke-opacity:1;"/>
<path class="atom-0" d="M 349.6 88.1 L 352.1 92.1 Q 352.3 92.5, 352.7 93.2 Q 353.1 93.9, 353.1 94.0 L 353.1 88.1 L 354.2 88.1 L 354.2 95.7 L 353.1 95.7 L 350.5 91.3 Q 350.2 90.8, 349.8 90.2 Q 349.5 89.6, 349.4 89.4 L 349.4 95.7 L 348.4 95.7 L 348.4 88.1 L 349.6 88.1 " fill="#0000FF"/>
<path class="atom-0" d="M 355.6 88.1 L 356.6 88.1 L 356.6 91.3 L 360.5 91.3 L 360.5 88.1 L 361.5 88.1 L 361.5 95.7 L 360.5 95.7 L 360.5 92.2 L 356.6 92.2 L 356.6 95.7 L 355.6 95.7 L 355.6 88.1 " fill="#0000FF"/>
<path class="atom-0" d="M 363.0 95.4 Q 363.2 94.9, 363.6 94.7 Q 364.0 94.4, 364.6 94.4 Q 365.4 94.4, 365.8 94.8 Q 366.2 95.2, 366.2 95.9 Q 366.2 96.7, 365.7 97.4 Q 365.2 98.1, 364.0 98.9 L 366.3 98.9 L 366.3 99.4 L 363.0 99.4 L 363.0 99.0 Q 363.9 98.3, 364.4 97.8 Q 365.0 97.3, 365.3 96.9 Q 365.5 96.4, 365.5 96.0 Q 365.5 95.5, 365.3 95.2 Q 365.1 95.0, 364.6 95.0 Q 364.2 95.0, 364.0 95.1 Q 363.7 95.3, 363.5 95.6 L 363.0 95.4 " fill="#0000FF"/>
<path class="atom-5" d="M 233.7 88.2 L 234.7 88.2 L 234.7 91.4 L 238.6 91.4 L 238.6 88.2 L 239.6 88.2 L 239.6 95.7 L 238.6 95.7 L 238.6 92.2 L 234.7 92.2 L 234.7 95.7 L 233.7 95.7 L 233.7 88.2 " fill="#FF0000"/>
<path class="atom-5" d="M 241.1 91.9 Q 241.1 90.1, 242.0 89.1 Q 242.9 88.1, 244.6 88.1 Q 246.3 88.1, 247.2 89.1 Q 248.1 90.1, 248.1 91.9 Q 248.1 93.7, 247.2 94.8 Q 246.3 95.8, 244.6 95.8 Q 242.9 95.8, 242.0 94.8 Q 241.1 93.8, 241.1 91.9 M 244.6 95.0 Q 245.8 95.0, 246.4 94.2 Q 247.0 93.4, 247.0 91.9 Q 247.0 90.4, 246.4 89.7 Q 245.8 88.9, 244.6 88.9 Q 243.4 88.9, 242.8 89.7 Q 242.2 90.4, 242.2 91.9 Q 242.2 93.4, 242.8 94.2 Q 243.4 95.0, 244.6 95.0 " fill="#FF0000"/>
<path class="atom-7" d="M 309.6 65.0 L 312.1 69.0 Q 312.3 69.4, 312.7 70.1 Q 313.1 70.8, 313.1 70.9 L 313.1 65.0 L 314.1 65.0 L 314.1 72.6 L 313.1 72.6 L 310.5 68.2 Q 310.1 67.7, 309.8 67.1 Q 309.5 66.5, 309.4 66.3 L 309.4 72.6 L 308.4 72.6 L 308.4 65.0 L 309.6 65.0 " fill="#0000FF"/>
<path class="note" d="M 355.7 101.5 Q 355.0 101.5, 354.7 101.0 Q 354.4 100.5, 354.4 99.6 Q 354.4 98.7, 354.7 98.2 Q 355.0 97.7, 355.7 97.7 Q 356.4 97.7, 356.8 98.2 Q 357.1 98.7, 357.1 99.6 Q 357.1 100.5, 356.8 101.0 Q 356.4 101.5, 355.7 101.5 M 355.7 101.1 Q 356.1 101.1, 356.4 100.7 Q 356.6 100.3, 356.6 99.6 Q 356.6 98.9, 356.4 98.5 Q 356.1 98.1, 355.7 98.1 Q 355.3 98.1, 355.1 98.5 Q 354.9 98.9, 354.9 99.6 Q 354.9 100.3, 355.1 100.7 Q 355.3 101.1, 355.7 101.1 " fill="#000000"/>
<path class="note" d="M 325.9 97.2 L 326.7 97.2 L 326.7 94.4 L 325.8 94.7 L 325.7 94.4 L 326.9 93.8 L 327.2 93.9 L 327.2 97.2 L 328.0 97.2 L 328.0 97.6 L 325.9 97.6 L 325.9 97.2 " fill="#000000"/>
<path class="note" d="M 312.2 117.7 Q 312.4 117.3, 312.7 117.1 Q 313.0 116.9, 313.5 116.9 Q 314.1 116.9, 314.4 117.2 Q 314.7 117.5, 314.7 118.1 Q 314.7 118.7, 314.3 119.2 Q 313.9 119.7, 313.0 120.3 L 314.8 120.3 L 314.8 120.7 L 312.2 120.7 L 312.2 120.4 Q 312.9 119.9, 313.3 119.5 Q 313.8 119.1, 314.0 118.8 Q 314.2 118.5, 314.2 118.1 Q 314.2 117.8, 314.0 117.6 Q 313.8 117.4, 313.5 117.4 Q 313.2 117.4, 313.0 117.5 Q 312.8 117.6, 312.6 117.9 L 312.2 117.7 " fill="#000000"/>
<path class="note" d="M 282.9 118.8 Q 283.3 118.9, 283.5 119.1 Q 283.7 119.3, 283.7 119.7 Q 283.7 120.0, 283.5 120.3 Q 283.3 120.5, 283.0 120.7 Q 282.7 120.8, 282.4 120.8 Q 282.0 120.8, 281.7 120.7 Q 281.4 120.5, 281.1 120.2 L 281.4 119.9 Q 281.7 120.2, 281.9 120.3 Q 282.0 120.4, 282.4 120.4 Q 282.7 120.4, 282.9 120.2 Q 283.1 120.0, 283.1 119.7 Q 283.1 119.3, 282.9 119.2 Q 282.7 119.0, 282.2 119.0 L 282.0 119.0 L 282.0 118.6 L 282.2 118.6 Q 282.6 118.6, 282.8 118.4 Q 283.0 118.2, 283.0 117.9 Q 283.0 117.6, 282.9 117.5 Q 282.7 117.4, 282.4 117.4 Q 282.1 117.4, 281.9 117.5 Q 281.7 117.6, 281.5 117.9 L 281.1 117.7 Q 281.3 117.3, 281.6 117.1 Q 281.9 116.9, 282.4 116.9 Q 282.9 116.9, 283.2 117.2 Q 283.6 117.4, 283.6 117.9 Q 283.6 118.2, 283.4 118.4 Q 283.2 118.6, 282.9 118.8 " fill="#000000"/>
<path class="note" d="M 270.0 96.3 L 270.5 96.3 L 270.5 96.8 L 270.0 96.8 L 270.0 97.6 L 269.5 97.6 L 269.5 96.8 L 267.6 96.8 L 267.6 96.4 L 269.2 93.8 L 270.0 93.8 L 270.0 96.3 M 268.2 96.3 L 269.5 96.3 L 269.5 94.2 L 268.2 96.3 " fill="#000000"/>
<path class="note" d="M 240.2 83.7 Q 240.6 83.7, 240.8 83.9 Q 241.1 84.0, 241.3 84.3 Q 241.4 84.5, 241.4 84.9 Q 241.4 85.3, 241.2 85.6 Q 241.1 85.8, 240.7 86.0 Q 240.4 86.1, 240.1 86.1 Q 239.7 86.1, 239.4 86.0 Q 239.1 85.9, 238.9 85.6 L 239.2 85.3 Q 239.4 85.5, 239.6 85.6 Q 239.9 85.7, 240.1 85.7 Q 240.4 85.7, 240.7 85.5 Q 240.9 85.3, 240.9 84.9 Q 240.9 84.5, 240.7 84.3 Q 240.4 84.1, 240.1 84.1 Q 239.7 84.1, 239.4 84.3 L 239.1 84.1 L 239.3 82.3 L 241.2 82.3 L 241.1 82.7 L 239.7 82.7 L 239.6 83.8 Q 239.9 83.7, 240.2 83.7 " fill="#000000"/>
<path class="note" d="M 282.6 64.5 Q 282.9 64.5, 283.1 64.6 Q 283.4 64.8, 283.5 65.0 Q 283.7 65.3, 283.7 65.6 Q 283.7 66.0, 283.5 66.3 Q 283.4 66.6, 283.1 66.7 Q 282.8 66.9, 282.4 66.9 Q 281.8 66.9, 281.4 66.4 Q 281.1 66.0, 281.1 65.1 Q 281.1 64.1, 281.5 63.6 Q 281.9 63.0, 282.7 63.0 Q 283.0 63.0, 283.1 63.1 Q 283.4 63.1, 283.5 63.2 L 283.3 63.6 Q 283.1 63.5, 282.7 63.5 Q 282.2 63.5, 281.9 63.8 Q 281.6 64.1, 281.6 64.9 Q 281.8 64.7, 282.0 64.6 Q 282.3 64.5, 282.6 64.5 M 282.4 66.5 Q 282.6 66.5, 282.8 66.3 Q 283.0 66.2, 283.1 66.1 Q 283.2 65.9, 283.2 65.6 Q 283.2 65.3, 283.0 65.1 Q 282.8 64.9, 282.5 64.9 Q 282.2 64.9, 282.0 65.0 Q 281.8 65.1, 281.6 65.3 Q 281.6 65.9, 281.8 66.2 Q 282.0 66.5, 282.4 66.5 " fill="#000000"/>
<path class="note" d="M 316.4 59.6 L 314.5 59.6 L 314.5 59.2 L 317.0 59.2 L 317.0 59.6 L 315.5 63.0 L 314.9 63.0 L 316.4 59.6 " fill="#000000"/>
<path class="legend" d="M 285.0 190.7 Q 285.0 188.8, 286.0 187.6 Q 287.0 186.5, 289.0 186.5 Q 290.8 186.5, 291.8 187.9 L 290.8 188.6 Q 290.4 188.2, 290.0 187.9 Q 289.5 187.7, 289.0 187.7 Q 287.8 187.7, 287.2 188.5 Q 286.6 189.2, 286.6 190.7 Q 286.6 192.3, 287.2 193.0 Q 287.9 193.8, 289.1 193.8 Q 289.7 193.8, 290.2 193.7 Q 290.7 193.5, 291.2 193.3 L 291.7 194.3 Q 290.5 195.0, 288.9 195.0 Q 287.0 195.0, 286.0 193.8 Q 285.0 192.7, 285.0 190.7 " fill="#000000"/>
<path class="legend" d="M 292.9 190.7 Q 292.9 188.7, 293.9 187.6 Q 294.9 186.5, 296.8 186.5 Q 298.6 186.5, 299.6 187.6 Q 300.7 188.7, 300.7 190.7 Q 300.7 192.7, 299.6 193.9 Q 298.6 195.0, 296.8 195.0 Q 294.9 195.0, 293.9 193.9 Q 292.9 192.7, 292.9 190.7 M 294.4 190.7 Q 294.4 192.2, 295.0 193.0 Q 295.6 193.8, 296.8 193.8 Q 297.9 193.8, 298.5 193.0 Q 299.1 192.2, 299.1 190.7 Q 299.1 189.2, 298.5 188.5 Q 297.9 187.7, 296.8 187.7 Q 295.6 187.7, 295.0 188.5 Q 294.4 189.2, 294.4 190.7 " fill="#000000"/>
<path class="legend" d="M 303.3 186.6 L 303.5 187.8 Q 304.3 186.5, 305.7 186.5 Q 306.2 186.5, 306.8 186.7 L 306.5 188.0 Q 305.9 187.8, 305.5 187.8 Q 304.8 187.8, 304.4 188.1 Q 303.9 188.4, 303.6 189.0 L 303.6 194.9 L 302.1 194.9 L 302.1 186.6 L 303.3 186.6 " fill="#000000"/>
<path class="legend" d="M 307.7 190.7 Q 307.7 188.7, 308.7 187.6 Q 309.7 186.5, 311.5 186.5 Q 313.4 186.5, 314.2 187.6 Q 315.0 188.7, 315.0 190.7 L 315.0 191.0 L 309.2 191.0 Q 309.3 192.3, 309.9 193.1 Q 310.5 193.8, 311.7 193.8 Q 312.3 193.8, 312.9 193.7 Q 313.5 193.5, 314.2 193.2 L 314.7 194.2 Q 313.8 194.6, 313.1 194.8 Q 312.4 195.0, 311.6 195.0 Q 309.7 195.0, 308.7 193.9 Q 307.7 192.8, 307.7 190.7 M 311.5 187.7 Q 310.6 187.7, 310.0 188.2 Q 309.5 188.8, 309.3 189.8 L 313.4 189.8 Q 313.3 188.7, 312.8 188.2 Q 312.4 187.7, 311.5 187.7 " fill="#000000"/>
<path class="bond-0 atom-0 atom-1" d="M 490.2,82.0 L 511.6,98.0" style="fill:none;fill-rule:evenodd;stroke:#000000;stroke-width:2.0px;stroke-linecap:butt;stroke-linejoin:miter;stroke-opacity:1"/>
<path class="bond-1 atom-1 atom-2" d="M 511.6,98.0 L 536.1,87.6" style="fill:none;fill-rule:evenodd;stroke:#000000;stroke-width:2.0px;stroke-linecap:butt;stroke-linejoin:miter;stroke-opacity:1"/>
<path class="bond-2 atom-3 atom-0" d="M 468.4,91.3 L 479.3,86.6" style="fill:none;fill-rule:evenodd;stroke:#191919;stroke-width:2.0px;stroke-linecap:butt;stroke-linejoin:miter;stroke-opacity:1"/>
<path class="bond-2 atom-3 atom-0" d="M 479.3,86.6 L 490.2,82.0" style="fill:none;fill-rule:evenodd;stroke:#000000;stroke-width:2.0px;stroke-linecap:butt;stroke-linejoin:miter;stroke-opacity:1"/>
<path d="M 491.3,82.8 L 490.2,82.0 L 489.7,82.2" style="fill:none;stroke:#000000;stroke-width:2.0px;stroke-linecap:butt;stroke-linejoin:miter;stroke-opacity:1;"/>
<path d="M 510.5,97.2 L 511.6,98.0 L 512.8,97.5" style="fill:none;stroke:#000000;stroke-width:2.0px;stroke-linecap:butt;stroke-linejoin:miter;stroke-opacity:1;"/>
<path class="atom-3" d="M 464.3 91.6 L 465.4 90.5 L 463.9 90.2 L 464.1 89.4 L 465.5 90.1 L 465.3 88.6 L 466.1 88.6 L 465.9 90.1 L 467.2 89.4 L 467.5 90.2 L 466.0 90.4 L 467.1 91.6 L 466.4 92.0 L 465.7 90.6 L 464.9 92.0 L 464.3 91.6 " fill="#191919"/>
<path class="legend" d="M 480.5 184.7 L 480.5 183.6 L 481.8 183.6 L 481.8 182.5 Q 481.8 181.2, 482.5 180.6 Q 483.2 180.0, 484.2 180.0 Q 484.8 180.0, 485.2 180.1 Q 485.6 180.2, 486.1 180.4 L 485.6 181.4 Q 485.0 181.1, 484.4 181.1 Q 483.8 181.1, 483.5 181.5 Q 483.2 181.8, 483.2 182.4 L 483.2 183.6 L 485.5 183.6 L 485.5 184.7 L 483.2 184.7 L 483.2 193.6 L 481.8 193.6 L 481.8 184.7 L 480.5 184.7 " fill="#000000"/>
<path class="legend" d="M 487.3 183.6 L 487.5 184.7 Q 488.3 183.5, 489.6 183.5 Q 490.0 183.5, 490.5 183.7 L 490.3 184.9 Q 489.7 184.8, 489.3 184.8 Q 488.7 184.8, 488.3 185.0 Q 487.9 185.3, 487.6 185.8 L 487.6 191.3 L 486.2 191.3 L 486.2 183.6 L 487.3 183.6 " fill="#000000"/>
<path class="legend" d="M 491.3 189.2 Q 491.3 188.0, 492.2 187.3 Q 493.2 186.7, 495.0 186.7 L 496.1 186.7 L 496.1 186.4 Q 496.1 185.4, 495.7 185.0 Q 495.4 184.6, 494.4 184.6 Q 493.8 184.6, 493.3 184.7 Q 492.8 184.8, 492.1 185.2 L 491.7 184.2 Q 493.1 183.5, 494.4 183.5 Q 496.1 183.5, 496.8 184.2 Q 497.5 184.9, 497.5 186.4 L 497.5 191.3 L 496.5 191.3 Q 496.4 191.2, 496.4 191.0 Q 496.3 190.8, 496.3 190.4 Q 495.2 191.5, 493.8 191.5 Q 492.6 191.5, 491.9 190.8 Q 491.3 190.2, 491.3 189.2 M 492.7 189.2 Q 492.7 189.7, 493.0 190.1 Q 493.4 190.4, 494.0 190.4 Q 494.6 190.4, 495.2 190.1 Q 495.8 189.8, 496.1 189.3 L 496.1 187.7 L 495.1 187.7 Q 493.9 187.7, 493.3 188.1 Q 492.7 188.4, 492.7 189.2 " fill="#000000"/>
<path class="legend" d="M 506.1 183.6 L 506.1 191.7 Q 506.1 195.0, 502.6 195.0 Q 500.9 195.0, 499.4 194.2 L 499.9 193.2 Q 500.7 193.6, 501.3 193.8 Q 501.9 193.9, 502.6 193.9 Q 503.7 193.9, 504.2 193.4 Q 504.7 192.9, 504.7 191.8 L 504.7 190.4 Q 503.9 191.4, 502.5 191.4 Q 500.9 191.4, 500.0 190.4 Q 499.2 189.4, 499.2 187.6 Q 499.2 185.7, 500.2 184.6 Q 501.3 183.5, 503.1 183.5 Q 504.0 183.5, 504.9 183.8 L 505.0 183.6 L 506.1 183.6 M 502.6 190.3 Q 503.4 190.3, 503.9 189.9 Q 504.5 189.5, 504.7 188.7 L 504.7 184.8 Q 503.9 184.6, 503.1 184.6 Q 501.9 184.6, 501.3 185.4 Q 500.6 186.2, 500.6 187.6 Q 500.6 188.9, 501.1 189.6 Q 501.6 190.3, 502.6 190.3 " fill="#000000"/>
<path class="legend" d="" fill="#000000"/>
<path class="legend" d="M 513.3 189.2 Q 513.3 188.0, 514.2 187.3 Q 515.2 186.7, 517.0 186.7 L 518.1 186.7 L 518.1 186.4 Q 518.1 185.4, 517.7 185.0 Q 517.3 184.6, 516.4 184.6 Q 515.8 184.6, 515.3 184.7 Q 514.8 184.8, 514.1 185.2 L 513.7 184.2 Q 515.1 183.5, 516.4 183.5 Q 518.0 183.5, 518.8 184.2 Q 519.5 184.9, 519.5 186.4 L 519.5 191.3 L 518.4 191.3 Q 518.4 191.2, 518.4 191.0 Q 518.3 190.8, 518.3 190.4 Q 517.2 191.5, 515.8 191.5 Q 514.6 191.5, 513.9 190.8 Q 513.3 190.2, 513.3 189.2 M 514.6 189.2 Q 514.6 189.7, 515.0 190.1 Q 515.4 190.4, 516.0 190.4 Q 516.6 190.4, 517.2 190.1 Q 517.8 189.8, 518.1 189.3 L 518.1 187.7 L 517.1 187.7 Q 515.9 187.7, 515.3 188.1 Q 514.6 188.4, 514.6 189.2 " fill="#000000"/>
<path class="bond-0 atom-1 atom-0" d="M 92.3,290.9 L 104.3,290.9" style="fill:none;fill-rule:evenodd;stroke:#191919;stroke-width:2.0px;stroke-linecap:butt;stroke-linejoin:miter;stroke-opacity:1"/>
<path class="bond-0 atom-1 atom-0" d="M 104.3,290.9 L 116.3,290.9" style="fill:none;fill-rule:evenodd;stroke:#000000;stroke-width:2.0px;stroke-linecap:butt;stroke-linejoin:miter;stroke-opacity:1"/>
<path class="atom-1" d="M 83.7 288.9 Q 83.9 288.5, 84.3 288.2 Q 84.7 287.9, 85.3 287.9 Q 86.1 287.9, 86.5 288.3 Q 86.9 288.8, 86.9 289.5 Q 86.9 290.2, 86.4 290.9 Q 85.8 291.6, 84.7 292.4 L 87.0 292.4 L 87.0 293.0 L 83.7 293.0 L 83.7 292.5 Q 84.6 291.8, 85.1 291.4 Q 85.7 290.9, 86.0 290.4 Q 86.2 290.0, 86.2 289.5 Q 86.2 289.0, 86.0 288.8 Q 85.8 288.5, 85.3 288.5 Q 84.9 288.5, 84.7 288.7 Q 84.4 288.8, 84.2 289.2 L 83.7 288.9 " fill="#191919"/>
<path class="atom-1" d="M 88.2 290.0 L 89.3 288.9 L 87.9 288.6 L 88.1 287.8 L 89.5 288.5 L 89.3 287.0 L 90.1 287.0 L 89.8 288.5 L 91.2 287.9 L 91.5 288.6 L 90.0 288.9 L 91.0 290.0 L 90.4 290.5 L 89.6 289.1 L 88.9 290.5 L 88.2 290.0 " fill="#191919"/>
<path class="legend" d="M 80.1 384.7 L 80.1 383.6 L 81.5 383.6 L 81.5 382.5 Q 81.5 381.2, 82.1 380.6 Q 82.8 380.0, 83.9 380.0 Q 84.4 380.0, 84.8 380.1 Q 85.2 380.2, 85.7 380.4 L 85.3 381.4 Q 84.6 381.1, 84.0 381.1 Q 83.5 381.1, 83.2 381.5 Q 82.9 381.8, 82.9 382.4 L 82.9 383.6 L 85.2 383.6 L 85.2 384.7 L 82.9 384.7 L 82.9 393.6 L 81.5 393.6 L 81.5 384.7 L 80.1 384.7 " fill="#000000"/>
<path class="legend" d="M 87.0 383.6 L 87.1 384.7 Q 87.9 383.5, 89.2 383.5 Q 89.6 383.5, 90.2 383.7 L 90.0 384.9 Q 89.3 384.8, 89.0 384.8 Q 88.4 384.8, 88.0 385.0 Q 87.6 385.3, 87.2 385.8 L 87.2 391.3 L 85.8 391.3 L 85.8 383.6 L 87.0 383.6 " fill="#000000"/>
<path class="legend" d="M 90.9 389.2 Q 90.9 388.0, 91.9 387.3 Q 92.9 386.7, 94.7 386.7 L 95.8 386.7 L 95.8 386.4 Q 95.8 385.4, 95.4 385.0 Q 95.0 384.6, 94.1 384.6 Q 93.5 384.6, 93.0 384.7 Q 92.5 384.8, 91.8 385.2 L 91.4 384.2 Q 92.8 383.5, 94.1 383.5 Q 95.7 383.5, 96.5 384.2 Q 97.2 384.9, 97.2 386.4 L 97.2 391.3 L 96.1 391.3 Q 96.1 391.2, 96.1 391.0 Q 96.0 390.8, 95.9 390.4 Q 94.9 391.5, 93.4 391.5 Q 92.3 391.5, 91.6 390.8 Q 90.9 390.2, 90.9 389.2 M 92.3 389.2 Q 92.3 389.7, 92.7 390.1 Q 93.0 390.4, 93.7 390.4 Q 94.3 390.4, 94.9 390.1 Q 95.4 389.8, 95.8 389.3 L 95.8 387.7 L 94.8 387.7 Q 93.6 387.7, 92.9 388.1 Q 92.3 388.4, 92.3 389.2 " fill="#000000"/>
<path class="legend" d="M 105.8 383.6 L 105.8 391.7 Q 105.8 395.0, 102.3 395.0 Q 100.6 395.0, 99.1 394.2 L 99.6 393.2 Q 100.4 393.6, 101.0 393.8 Q 101.6 393.9, 102.3 393.9 Q 103.4 393.9, 103.9 393.4 Q 104.4 392.9, 104.4 391.8 L 104.4 390.4 Q 103.6 391.4, 102.2 391.4 Q 100.6 391.4, 99.7 390.4 Q 98.9 389.4, 98.9 387.6 Q 98.9 385.7, 99.9 384.6 Q 100.9 383.5, 102.8 383.5 Q 103.7 383.5, 104.6 383.8 L 104.7 383.6 L 105.8 383.6 M 102.3 390.3 Q 103.1 390.3, 103.6 389.9 Q 104.2 389.5, 104.4 388.7 L 104.4 384.8 Q 103.6 384.6, 102.8 384.6 Q 101.6 384.6, 100.9 385.4 Q 100.3 386.2, 100.3 387.6 Q 100.3 388.9, 100.8 389.6 Q 101.3 390.3, 102.3 390.3 " fill="#000000"/>
<path class="legend" d="" fill="#000000"/>
<path class="legend" d="M 116.5 383.5 Q 118.1 383.5, 119.0 384.5 Q 119.9 385.5, 119.9 387.3 Q 119.9 389.2, 118.8 390.3 Q 117.8 391.4, 116.0 391.4 Q 114.8 391.4, 113.6 390.9 L 113.0 390.8 L 113.0 380.0 L 114.4 380.0 L 114.4 384.5 Q 115.2 383.5, 116.5 383.5 M 115.9 390.3 Q 117.1 390.3, 117.8 389.5 Q 118.5 388.7, 118.5 387.3 Q 118.5 386.0, 117.9 385.3 Q 117.4 384.6, 116.4 384.6 Q 115.7 384.6, 115.1 385.0 Q 114.6 385.4, 114.4 386.2 L 114.4 390.1 Q 115.1 390.3, 115.9 390.3 " fill="#000000"/>
</svg>