<svg xmlns="http://www.w3.org/2000/svg" xmlns:rdkit="http://www.rdkit.org/xml" xmlns:xlink="http://www.w3.org/1999/xlink" version="1.1" baseProfile="full" xml:space="preserve" width="600px" height="200px" viewBox="0 0 600 200">
<!-- END OF HEADER -->
<rect style="opacity:1.0;fill:#FFFFFF;stroke:none" width="600.0" height="200.0" x="0.0" y="0.0"> </rect>
<path class="bond-0 atom-0 atom-1" d="M 111.3,111.7 L 88.0,99.1" style="fill:none;fill-rule:evenodd;stroke:#000000;stroke-width:2.0px;stroke-linecap:butt;stroke-linejoin:miter;stroke-opacity:1"/>
<path class="bond-0 atom-0 atom-1" d="M 111.1,107.1 L 91.9,96.7" style="fill:none;fill-rule:evenodd;stroke:#000000;stroke-width:2.0px;stroke-linecap:butt;stroke-linejoin:miter;stroke-opacity:1"/>
<path class="bond-1 atom-1 atom-2" d="M 88.0,99.1 L 65.6,113.0" style="fill:none;fill-rule:evenodd;stroke:#000000;stroke-width:2.0px;stroke-linecap:butt;stroke-linejoin:miter;stroke-opacity:1"/>
<path class="bond-2 atom-2 atom-3" d="M 65.6,113.0 L 42.4,100.5" style="fill:none;fill-rule:evenodd;stroke:#000000;stroke-width:2.0px;stroke-linecap:butt;stroke-linejoin:miter;stroke-opacity:1"/>
<path class="bond-3 atom-3 atom-4" d="M 42.4,100.5 L 33.3,106.1" style="fill:none;fill-rule:evenodd;stroke:#000000;stroke-width:2.0px;stroke-linecap:butt;stroke-linejoin:miter;stroke-opacity:1"/>
<path class="bond-3 atom-3 atom-4" d="M 33.3,106.1 L 24.2,111.7" style="fill:none;fill-rule:evenodd;stroke:#FF0000;stroke-width:2.0px;stroke-linecap:butt;stroke-linejoin:miter;stroke-opacity:1"/>
<path class="bond-4 atom-1 atom-5" d="M 88.0,99.1 L 87.7,88.3" style="fill:none;fill-rule:evenodd;stroke:#000000;stroke-width:2.0px;stroke-linecap:butt;stroke-linejoin:miter;stroke-opacity:1"/>
<path class="bond-4 atom-1 atom-5" d="M 87.7,88.3 L 87.4,77.4" style="fill:none;fill-rule:evenodd;stroke:#0000FF;stroke-width:2.0px;stroke-linecap:butt;stroke-linejoin:miter;stroke-opacity:1"/>
<path class="bond-5 atom-5 atom-6" d="M 91.0,70.5 L 100.3,64.7" style="fill:none;fill-rule:evenodd;stroke:#0000FF;stroke-width:2.0px;stroke-linecap:butt;stroke-linejoin:miter;stroke-opacity:1"/>
<path class="bond-5 atom-5 atom-6" d="M 100.3,64.7 L 109.7,58.9" style="fill:none;fill-rule:evenodd;stroke:#000000;stroke-width:2.0px;stroke-linecap:butt;stroke-linejoin:miter;stroke-opacity:1"/>
<path class="bond-5 atom-5 atom-6" d="M 93.0,73.8 L 101.5,68.7" style="fill:none;fill-rule:evenodd;stroke:#0000FF;stroke-width:2.0px;stroke-linecap:butt;stroke-linejoin:miter;stroke-opacity:1"/>
<path class="bond-5 atom-5 atom-6" d="M 101.5,68.7 L 109.9,63.5" style="fill:none;fill-rule:evenodd;stroke:#000000;stroke-width:2.0px;stroke-linecap:butt;stroke-linejoin:miter;stroke-opacity:1"/>
<path class="bond-6 atom-6 atom-7" d="M 109.7,58.9 L 119.5,64.2" style="fill:none;fill-rule:evenodd;stroke:#000000;stroke-width:2.0px;stroke-linecap:butt;stroke-linejoin:miter;stroke-opacity:1"/>
<path class="bond-6 atom-6 atom-7" d="M 119.5,64.2 L 129.2,69.4" style="fill:none;fill-rule:evenodd;stroke:#0000FF;stroke-width:2.0px;stroke-linecap:butt;stroke-linejoin:miter;stroke-opacity:1"/>
<path class="bond-7 atom-7 atom-8" d="M 133.1,76.0 L 133.4,86.9" style="fill:none;fill-rule:evenodd;stroke:#0000FF;stroke-width:2.0px;stroke-linecap:butt;stroke-linejoin:miter;stroke-opacity:1"/>
<path class="bond-7 atom-7 atom-8" d="M 133.4,86.9 L 133.7,97.8" style="fill:none;fill-rule:evenodd;stroke:#000000;stroke-width:2.0px;stroke-linecap:butt;stroke-linejoin:miter;stroke-opacity:1"/>
<path class="bond-7 atom-7 atom-8" d="M 129.1,76.2 L 129.4,85.9" style="fill:none;fill-rule:evenodd;stroke:#0000FF;stroke-width:2.0px;stroke-linecap:butt;stroke-linejoin:miter;stroke-opacity:1"/>
<path class="bond-7 atom-7 atom-8" d="M 129.4,85.9 L 129.7,95.6" style="fill:none;fill-rule:evenodd;stroke:#000000;stroke-width:2.0px;stroke-linecap:butt;stroke-linejoin:miter;stroke-opacity:1"/>
<path class="bond-8 atom-8 atom-9" d="M 133.7,97.8 L 156.9,110.3" style="fill:none;fill-rule:evenodd;stroke:#000000;stroke-width:2.0px;stroke-linecap:butt;stroke-linejoin:miter;stroke-opacity:1"/>
<path class="bond-9 atom-9 atom-10" d="M 157.0,112.6 L 166.6,106.7" style="fill:none;fill-rule:evenodd;stroke:#000000;stroke-width:2.0px;stroke-linecap:butt;stroke-linejoin:miter;stroke-opacity:1"/>
<path class="bond-9 atom-9 atom-10" d="M 166.6,106.7 L 176.1,100.8" style="fill:none;fill-rule:evenodd;stroke:#FF0000;stroke-width:2.0px;stroke-linecap:butt;stroke-linejoin:miter;stroke-opacity:1"/>
<path class="bond-9 atom-9 atom-10" d="M 154.9,109.2 L 164.5,103.3" style="fill:none;fill-rule:evenodd;stroke:#000000;stroke-width:2.0px;stroke-linecap:butt;stroke-linejoin:miter;stroke-opacity:1"/>
<path class="bond-9 atom-9 atom-10" d="M 164.5,103.3 L 174.1,97.4" style="fill:none;fill-rule:evenodd;stroke:#FF0000;stroke-width:2.0px;stroke-linecap:butt;stroke-linejoin:miter;stroke-opacity:1"/>
<path class="bond-10 atom-9 atom-11" d="M 156.9,110.3 L 157.2,121.2" style="fill:none;fill-rule:evenodd;stroke:#000000;stroke-width:2.0px;stroke-linecap:butt;stroke-linejoin:miter;stroke-opacity:1"/>
<path class="bond-10 atom-9 atom-11" d="M 157.2,121.2 L 157.6,132.1" style="fill:none;fill-rule:evenodd;stroke:#FF0000;stroke-width:2.0px;stroke-linecap:butt;stroke-linejoin:miter;stroke-opacity:1"/>
<path class="bond-11 atom-8 atom-0" d="M 133.7,97.8 L 111.3,111.7" style="fill:none;fill-rule:evenodd;stroke:#000000;stroke-width:2.0px;stroke-linecap:butt;stroke-linejoin:miter;stroke-opacity:1"/>
<path d="M 110.1,111.0 L 111.3,111.7 L 112.4,111.0" style="fill:none;stroke:#000000;stroke-width:2.0px;stroke-linecap:butt;stroke-linejoin:miter;stroke-opacity:1;"/>
<path d="M 66.7,112.3 L 65.6,113.0 L 64.4,112.4" style="fill:none;stroke:#000000;stroke-width:2.0px;stroke-linecap:butt;stroke-linejoin:miter;stroke-opacity:1;"/>
<path d="M 43.5,101.1 L 42.4,100.5 L 41.9,100.7" style="fill:none;stroke:#000000;stroke-width:2.0px;stroke-linecap:butt;stroke-linejoin:miter;stroke-opacity:1;"/>
<path d="M 109.3,59.2 L 109.7,58.9 L 110.2,59.2" style="fill:none;stroke:#000000;stroke-width:2.0px;stroke-linecap:butt;stroke-linejoin:miter;stroke-opacity:1;"/>
<path d="M 155.8,109.7 L 156.9,110.3 L 156.9,110.9" style="fill:none;stroke:#000000;stroke-width:2.0px;stroke-linecap:butt;stroke-linejoin:miter;stroke-opacity:1;"/>
<path class="atom-4" d="M 9.1 110.6 L 10.1 110.6 L 10.1 113.8 L 13.9 113.8 L 13.9 110.6 L 14.9 110.6 L 14.9 118.1 L 13.9 118.1 L 13.9 114.6 L 10.1 114.6 L 10.1 118.1 L 9.1 118.1 L 9.1 110.6 " fill="#FF0000"/>
<path class="atom-4" d="M 16.5 114.3 Q 16.5 112.5, 17.4 111.5 Q 18.2 110.5, 19.9 110.5 Q 21.6 110.5, 22.4 111.5 Q 23.3 112.5, 23.3 114.3 Q 23.3 116.2, 22.4 117.2 Q 21.5 118.2, 19.9 118.2 Q 18.3 118.2, 17.4 117.2 Q 16.5 116.2, 16.5 114.3 M 19.9 117.4 Q 21.0 117.4, 21.7 116.6 Q 22.3 115.8, 22.3 114.3 Q 22.3 112.9, 21.7 112.1 Q 21.0 111.4, 19.9 111.4 Q 18.8 111.4, 18.1 112.1 Q 17.5 112.9, 17.5 114.3 Q 17.5 115.8, 18.1 116.6 Q 18.8 117.4, 19.9 117.4 " fill="#FF0000"/>
<path class="atom-5" d="M 85.6 69.0 L 88.1 73.0 Q 88.3 73.4, 88.7 74.1 Q 89.1 74.8, 89.1 74.8 L 89.1 69.0 L 90.1 69.0 L 90.1 76.5 L 89.1 76.5 L 86.4 72.2 Q 86.1 71.7, 85.8 71.1 Q 85.5 70.5, 85.4 70.3 L 85.4 76.5 L 84.4 76.5 L 84.4 69.0 L 85.6 69.0 " fill="#0000FF"/>
<path class="atom-7" d="M 131.3 67.7 L 133.7 71.7 Q 134.0 72.0, 134.4 72.8 Q 134.8 73.5, 134.8 73.5 L 134.8 67.7 L 135.8 67.7 L 135.8 75.2 L 134.8 75.2 L 132.1 70.8 Q 131.8 70.3, 131.5 69.8 Q 131.2 69.2, 131.1 69.0 L 131.1 75.2 L 130.1 75.2 L 130.1 67.7 L 131.3 67.7 " fill="#0000FF"/>
<path class="atom-10" d="M 176.0 96.5 Q 176.0 94.7, 176.8 93.7 Q 177.7 92.7, 179.4 92.7 Q 181.0 92.7, 181.9 93.7 Q 182.8 94.7, 182.8 96.5 Q 182.8 98.3, 181.9 99.3 Q 181.0 100.4, 179.4 100.4 Q 177.7 100.4, 176.8 99.3 Q 176.0 98.3, 176.0 96.5 M 179.4 99.5 Q 180.5 99.5, 181.1 98.8 Q 181.8 98.0, 181.8 96.5 Q 181.8 95.0, 181.1 94.3 Q 180.5 93.5, 179.4 93.5 Q 178.2 93.5, 177.6 94.3 Q 177.0 95.0, 177.0 96.5 Q 177.0 98.0, 177.6 98.8 Q 178.2 99.5, 179.4 99.5 " fill="#FF0000"/>
<path class="atom-11" d="M 154.3 136.7 Q 154.3 134.9, 155.2 133.9 Q 156.0 132.9, 157.7 132.9 Q 159.4 132.9, 160.2 133.9 Q 161.1 134.9, 161.1 136.7 Q 161.1 138.5, 160.2 139.6 Q 159.3 140.6, 157.7 140.6 Q 156.1 140.6, 155.2 139.6 Q 154.3 138.5, 154.3 136.7 M 157.7 139.8 Q 158.8 139.8, 159.5 139.0 Q 160.1 138.2, 160.1 136.7 Q 160.1 135.3, 159.5 134.5 Q 158.8 133.8, 157.7 133.8 Q 156.6 133.8, 155.9 134.5 Q 155.3 135.2, 155.3 136.7 Q 155.3 138.2, 155.9 139.0 Q 156.6 139.8, 157.7 139.8 " fill="#FF0000"/>
<path class="atom-11" d="M 162.3 133.0 L 163.3 133.0 L 163.3 136.2 L 167.1 136.2 L 167.1 133.0 L 168.1 133.0 L 168.1 140.5 L 167.1 140.5 L 167.1 137.0 L 163.3 137.0 L 163.3 140.5 L 162.3 140.5 L 162.3 133.0 " fill="#FF0000"/>
<path class="note" d="M 111.4 118.0 Q 110.7 118.0, 110.4 117.5 Q 110.0 117.0, 110.0 116.1 Q 110.0 115.2, 110.4 114.7 Q 110.7 114.2, 111.4 114.2 Q 112.1 114.2, 112.4 114.7 Q 112.8 115.2, 112.8 116.1 Q 112.8 117.0, 112.4 117.5 Q 112.1 118.0, 111.4 118.0 M 111.4 117.6 Q 111.8 117.6, 112.0 117.2 Q 112.2 116.8, 112.2 116.1 Q 112.2 115.3, 112.0 115.0 Q 111.8 114.6, 111.4 114.6 Q 111.0 114.6, 110.8 115.0 Q 110.5 115.3, 110.5 116.1 Q 110.5 116.8, 110.8 117.2 Q 111.0 117.6, 111.4 117.6 " fill="#000000"/>
<path class="note" d="M 87.2 105.0 L 88.1 105.0 L 88.1 102.2 L 87.2 102.5 L 87.0 102.2 L 88.2 101.7 L 88.6 101.7 L 88.6 105.0 L 89.3 105.0 L 89.3 105.4 L 87.2 105.4 L 87.2 105.0 " fill="#000000"/>
<path class="note" d="M 64.5 116.2 Q 64.6 115.9, 64.9 115.7 Q 65.2 115.5, 65.7 115.5 Q 66.3 115.5, 66.6 115.8 Q 66.9 116.1, 66.9 116.6 Q 66.9 117.2, 66.5 117.7 Q 66.1 118.2, 65.2 118.8 L 67.0 118.8 L 67.0 119.3 L 64.4 119.3 L 64.4 118.9 Q 65.1 118.4, 65.6 118.1 Q 66.0 117.7, 66.2 117.4 Q 66.4 117.0, 66.4 116.7 Q 66.4 116.3, 66.2 116.1 Q 66.0 115.9, 65.7 115.9 Q 65.4 115.9, 65.2 116.0 Q 65.0 116.2, 64.9 116.4 L 64.5 116.2 " fill="#000000"/>
<path class="note" d="M 42.8 96.0 Q 43.1 96.1, 43.3 96.3 Q 43.5 96.6, 43.5 96.9 Q 43.5 97.3, 43.3 97.5 Q 43.2 97.7, 42.9 97.9 Q 42.6 98.0, 42.2 98.0 Q 41.8 98.0, 41.5 97.9 Q 41.2 97.7, 41.0 97.4 L 41.3 97.1 Q 41.5 97.4, 41.7 97.5 Q 41.9 97.6, 42.2 97.6 Q 42.5 97.6, 42.7 97.4 Q 43.0 97.2, 43.0 96.9 Q 43.0 96.5, 42.7 96.4 Q 42.5 96.2, 42.1 96.2 L 41.8 96.2 L 41.8 95.8 L 42.0 95.8 Q 42.4 95.8, 42.7 95.6 Q 42.9 95.5, 42.9 95.1 Q 42.9 94.9, 42.7 94.8 Q 42.5 94.6, 42.2 94.6 Q 41.9 94.6, 41.7 94.7 Q 41.5 94.8, 41.4 95.1 L 41.0 94.9 Q 41.1 94.6, 41.5 94.4 Q 41.8 94.2, 42.2 94.2 Q 42.8 94.2, 43.1 94.4 Q 43.4 94.7, 43.4 95.1 Q 43.4 95.4, 43.2 95.7 Q 43.1 95.9, 42.8 96.0 " fill="#000000"/>
<path class="note" d="M 16.3 107.4 L 16.7 107.4 L 16.7 107.8 L 16.3 107.8 L 16.3 108.7 L 15.8 108.7 L 15.8 107.8 L 13.8 107.8 L 13.8 107.5 L 15.5 105.0 L 16.3 105.0 L 16.3 107.4 M 14.5 107.4 L 15.8 107.4 L 15.8 105.3 L 14.5 107.4 " fill="#000000"/>
<path class="note" d="M 79.6 68.1 Q 79.9 68.1, 80.2 68.3 Q 80.5 68.4, 80.6 68.7 Q 80.8 68.9, 80.8 69.3 Q 80.8 69.7, 80.6 69.9 Q 80.4 70.2, 80.1 70.4 Q 79.8 70.5, 79.5 70.5 Q 79.1 70.5, 78.8 70.4 Q 78.5 70.2, 78.3 70.0 L 78.6 69.7 Q 78.8 69.9, 79.0 70.0 Q 79.2 70.1, 79.5 70.1 Q 79.8 70.1, 80.0 69.9 Q 80.3 69.7, 80.3 69.3 Q 80.3 68.9, 80.0 68.7 Q 79.8 68.5, 79.4 68.5 Q 79.1 68.5, 78.7 68.7 L 78.5 68.5 L 78.6 66.7 L 80.6 66.7 L 80.5 67.1 L 79.1 67.1 L 79.0 68.3 Q 79.3 68.1, 79.6 68.1 " fill="#000000"/>
<path class="note" d="M 109.8 54.1 Q 110.1 54.1, 110.3 54.2 Q 110.6 54.4, 110.7 54.6 Q 110.9 54.9, 110.9 55.2 Q 110.9 55.6, 110.7 55.9 Q 110.6 56.1, 110.3 56.3 Q 110.0 56.4, 109.6 56.4 Q 109.0 56.4, 108.6 56.0 Q 108.3 55.5, 108.3 54.6 Q 108.3 53.7, 108.7 53.1 Q 109.1 52.6, 109.9 52.6 Q 110.2 52.6, 110.4 52.7 Q 110.6 52.7, 110.7 52.8 L 110.5 53.2 Q 110.3 53.1, 109.9 53.1 Q 109.4 53.1, 109.1 53.4 Q 108.9 53.7, 108.8 54.4 Q 109.0 54.3, 109.3 54.2 Q 109.5 54.1, 109.8 54.1 M 109.6 56.0 Q 109.8 56.0, 110.0 55.9 Q 110.2 55.8, 110.3 55.6 Q 110.4 55.4, 110.4 55.2 Q 110.4 54.9, 110.2 54.7 Q 110.0 54.5, 109.7 54.5 Q 109.4 54.5, 109.2 54.6 Q 109.0 54.7, 108.8 54.8 Q 108.9 55.5, 109.0 55.7 Q 109.2 56.0, 109.6 56.0 " fill="#000000"/>
<path class="note" d="M 141.1 65.4 L 139.2 65.4 L 139.2 65.0 L 141.7 65.0 L 141.7 65.3 L 140.2 68.7 L 139.7 68.7 L 141.1 65.4 " fill="#000000"/>
<path class="note" d="M 138.0 95.4 Q 138.4 95.6, 138.6 95.8 Q 138.8 96.0, 138.8 96.4 Q 138.8 96.7, 138.6 96.9 Q 138.4 97.2, 138.2 97.3 Q 137.9 97.4, 137.5 97.4 Q 136.9 97.4, 136.5 97.2 Q 136.1 96.9, 136.1 96.4 Q 136.1 96.1, 136.3 95.8 Q 136.5 95.6, 136.8 95.4 Q 136.5 95.3, 136.4 95.1 Q 136.3 94.9, 136.3 94.6 Q 136.3 94.1, 136.6 93.9 Q 136.9 93.6, 137.5 93.6 Q 138.0 93.6, 138.3 93.9 Q 138.6 94.1, 138.6 94.6 Q 138.6 94.8, 138.5 95.0 Q 138.3 95.2, 138.0 95.4 M 137.5 94.0 Q 137.1 94.0, 137.0 94.2 Q 136.8 94.3, 136.8 94.6 Q 136.8 94.8, 136.9 94.9 Q 137.0 95.0, 137.2 95.1 Q 137.4 95.2, 137.7 95.3 Q 137.9 95.1, 138.0 95.0 Q 138.1 94.8, 138.1 94.6 Q 138.1 94.3, 137.9 94.2 Q 137.8 94.0, 137.5 94.0 M 137.5 97.0 Q 137.8 97.0, 138.0 96.9 Q 138.2 96.7, 138.2 96.4 Q 138.2 96.2, 138.1 96.0 Q 138.0 95.9, 137.9 95.8 Q 137.7 95.8, 137.4 95.7 L 137.2 95.6 Q 136.9 95.7, 136.8 95.9 Q 136.7 96.1, 136.7 96.4 Q 136.7 96.7, 136.9 96.9 Q 137.1 97.0, 137.5 97.0 " fill="#000000"/>
<path class="note" d="M 154.8 112.3 Q 155.5 112.3, 155.8 112.8 Q 156.1 113.2, 156.1 114.1 Q 156.1 115.1, 155.7 115.6 Q 155.3 116.1, 154.5 116.1 Q 154.3 116.1, 154.1 116.1 Q 153.9 116.0, 153.7 115.9 L 153.9 115.6 Q 154.2 115.7, 154.5 115.7 Q 155.0 115.7, 155.3 115.4 Q 155.6 115.0, 155.6 114.3 Q 155.4 114.5, 155.2 114.6 Q 154.9 114.7, 154.7 114.7 Q 154.4 114.7, 154.1 114.5 Q 153.8 114.4, 153.7 114.1 Q 153.6 113.9, 153.6 113.6 Q 153.6 113.2, 153.7 112.9 Q 153.9 112.6, 154.2 112.5 Q 154.4 112.3, 154.8 112.3 M 154.1 113.6 Q 154.1 113.9, 154.3 114.1 Q 154.4 114.3, 154.8 114.3 Q 155.0 114.3, 155.2 114.2 Q 155.5 114.1, 155.6 113.9 Q 155.6 113.3, 155.4 113.0 Q 155.2 112.7, 154.8 112.7 Q 154.6 112.7, 154.4 112.8 Q 154.3 113.0, 154.2 113.1 Q 154.1 113.3, 154.1 113.6 " fill="#000000"/>
<path class="note" d="M 185.7 97.7 L 186.5 97.7 L 186.5 94.9 L 185.6 95.2 L 185.5 94.9 L 186.6 94.4 L 187.0 94.4 L 187.0 97.7 L 187.7 97.7 L 187.7 98.1 L 185.7 98.1 L 185.7 97.7 " fill="#000000"/>
<path class="note" d="M 189.5 98.2 Q 188.9 98.2, 188.5 97.6 Q 188.2 97.1, 188.2 96.2 Q 188.2 95.3, 188.5 94.8 Q 188.9 94.3, 189.5 94.3 Q 190.2 94.3, 190.6 94.8 Q 190.9 95.3, 190.9 96.2 Q 190.9 97.1, 190.6 97.6 Q 190.2 98.2, 189.5 98.2 M 189.5 97.7 Q 189.9 97.7, 190.2 97.4 Q 190.4 97.0, 190.4 96.2 Q 190.4 95.5, 190.2 95.1 Q 189.9 94.8, 189.5 94.8 Q 189.1 94.8, 188.9 95.1 Q 188.7 95.5, 188.7 96.2 Q 188.7 97.0, 188.9 97.4 Q 189.1 97.7, 189.5 97.7 " fill="#000000"/>
<path class="note" d="M 155.7 146.9 L 156.5 146.9 L 156.5 144.2 L 155.6 144.4 L 155.5 144.1 L 156.6 143.6 L 157.0 143.7 L 157.0 146.9 L 157.7 146.9 L 157.7 147.4 L 155.7 147.4 L 155.7 146.9 " fill="#000000"/>
<path class="note" d="M 158.4 146.9 L 159.2 146.9 L 159.2 144.2 L 158.3 144.4 L 158.2 144.1 L 159.3 143.6 L 159.7 143.7 L 159.7 146.9 L 160.4 146.9 L 160.4 147.4 L 158.4 147.4 L 158.4 146.9 " fill="#000000"/>
<path class="bond-0 atom-0 atom-1" d="M 287.0,92.1 L 308.0,107.9" style="fill:none;fill-rule:evenodd;stroke:#000000;stroke-width:2.0px;stroke-linecap:butt;stroke-linejoin:miter;stroke-opacity:1"/>
<path class="bond-1 atom-1 atom-2" d="M 308.0,107.9 L 318.0,103.7" style="fill:none;fill-rule:evenodd;stroke:#000000;stroke-width:2.0px;stroke-linecap:butt;stroke-linejoin:miter;stroke-opacity:1"/>
<path class="bond-1 atom-1 atom-2" d="M 318.0,103.7 L 328.0,99.4" style="fill:none;fill-rule:evenodd;stroke:#FF0000;stroke-width:2.0px;stroke-linecap:butt;stroke-linejoin:miter;stroke-opacity:1"/>
<path class="bond-2 atom-3 atom-0" d="M 265.3,101.3 L 276.1,96.7" style="fill:none;fill-rule:evenodd;stroke:#191919;stroke-width:2.0px;stroke-linecap:butt;stroke-linejoin:miter;stroke-opacity:1"/>
<path class="bond-2 atom-3 atom-0" d="M 276.1,96.7 L 287.0,92.1" style="fill:none;fill-rule:evenodd;stroke:#000000;stroke-width:2.0px;stroke-linecap:butt;stroke-linejoin:miter;stroke-opacity:1"/>
<path d="M 288.0,92.9 L 287.0,92.1 L 286.4,92.3" style="fill:none;stroke:#000000;stroke-width:2.0px;stroke-linecap:butt;stroke-linejoin:miter;stroke-opacity:1;"/>
<path d="M 307.0,107.1 L 308.0,107.9 L 308.5,107.7" style="fill:none;stroke:#000000;stroke-width:2.0px;stroke-linecap:butt;stroke-linejoin:miter;stroke-opacity:1;"/>
<path class="atom-2" d="M 328.9 97.6 Q 328.9 95.8, 329.8 94.8 Q 330.7 93.8, 332.3 93.8 Q 334.0 93.8, 334.9 94.8 Q 335.7 95.8, 335.7 97.6 Q 335.7 99.4, 334.9 100.5 Q 334.0 101.5, 332.3 101.5 Q 330.7 101.5, 329.8 100.5 Q 328.9 99.4, 328.9 97.6 M 332.3 100.6 Q 333.5 100.6, 334.1 99.9 Q 334.7 99.1, 334.7 97.6 Q 334.7 96.2, 334.1 95.4 Q 333.5 94.7, 332.3 94.7 Q 331.2 94.7, 330.6 95.4 Q 329.9 96.1, 329.9 97.6 Q 329.9 99.1, 330.6 99.9 Q 331.2 100.6, 332.3 100.6 " fill="#FF0000"/>
<path class="atom-2" d="M 336.9 93.9 L 337.9 93.9 L 337.9 97.1 L 341.7 97.1 L 341.7 93.9 L 342.8 93.9 L 342.8 101.4 L 341.7 101.4 L 341.7 97.9 L 337.9 97.9 L 337.9 101.4 L 336.9 101.4 L 336.9 93.9 " fill="#FF0000"/>
<path class="atom-3" d="M 257.5 103.9 L 258.6 103.9 L 258.6 100.2 L 257.4 100.6 L 257.2 100.2 L 258.8 99.5 L 259.2 99.6 L 259.2 103.9 L 260.2 103.9 L 260.2 104.5 L 257.5 104.5 L 257.5 103.9 " fill="#191919"/>
<path class="atom-3" d="M 261.3 101.6 L 262.4 100.4 L 260.9 100.2 L 261.1 99.4 L 262.5 100.1 L 262.3 98.6 L 263.1 98.6 L 262.9 100.1 L 264.2 99.4 L 264.4 100.2 L 263.0 100.4 L 264.0 101.6 L 263.4 102.0 L 262.7 100.6 L 261.9 102.0 L 261.3 101.6 " fill="#191919"/>
<path class="bond-0 atom-0 atom-1" d="M 499.2,107.7 L 509.0,113.3" style="fill:none;fill-rule:evenodd;stroke:#000000;stroke-width:2.0px;stroke-linecap:butt;stroke-linejoin:miter;stroke-opacity:1"/>
<path class="bond-0 atom-0 atom-1" d="M 509.0,113.3 L 518.8,119.0" style="fill:none;fill-rule:evenodd;stroke:#FF0000;stroke-width:2.0px;stroke-linecap:butt;stroke-linejoin:miter;stroke-opacity:1"/>
<path class="bond-0 atom-0 atom-1" d="M 501.2,104.3 L 511.0,109.9" style="fill:none;fill-rule:evenodd;stroke:#000000;stroke-width:2.0px;stroke-linecap:butt;stroke-linejoin:miter;stroke-opacity:1"/>
<path class="bond-0 atom-0 atom-1" d="M 511.0,109.9 L 520.8,115.5" style="fill:none;fill-rule:evenodd;stroke:#FF0000;stroke-width:2.0px;stroke-linecap:butt;stroke-linejoin:miter;stroke-opacity:1"/>
<path class="bond-1 atom-0 atom-2" d="M 501.2,106.5 L 501.2,95.7" style="fill:none;fill-rule:evenodd;stroke:#000000;stroke-width:2.0px;stroke-linecap:butt;stroke-linejoin:miter;stroke-opacity:1"/>
<path class="bond-1 atom-0 atom-2" d="M 501.2,95.7 L 501.2,84.9" style="fill:none;fill-rule:evenodd;stroke:#FF0000;stroke-width:2.0px;stroke-linecap:butt;stroke-linejoin:miter;stroke-opacity:1"/>
<path class="bond-2 atom-3 atom-0" d="M 481.0,118.2 L 491.1,112.4" style="fill:none;fill-rule:evenodd;stroke:#191919;stroke-width:2.0px;stroke-linecap:butt;stroke-linejoin:miter;stroke-opacity:1"/>
<path class="bond-2 atom-3 atom-0" d="M 491.1,112.4 L 501.2,106.5" style="fill:none;fill-rule:evenodd;stroke:#000000;stroke-width:2.0px;stroke-linecap:butt;stroke-linejoin:miter;stroke-opacity:1"/>
<path d="M 501.2,106.0 L 501.2,106.5 L 500.7,106.8" style="fill:none;stroke:#000000;stroke-width:2.0px;stroke-linecap:butt;stroke-linejoin:miter;stroke-opacity:1;"/>
<path class="atom-1" d="M 520.6 119.8 Q 520.6 118.0, 521.5 117.0 Q 522.4 116.0, 524.1 116.0 Q 525.7 116.0, 526.6 117.0 Q 527.5 118.0, 527.5 119.8 Q 527.5 121.6, 526.6 122.6 Q 525.7 123.6, 524.1 123.6 Q 522.4 123.6, 521.5 122.6 Q 520.6 121.6, 520.6 119.8 M 524.1 122.8 Q 525.2 122.8, 525.8 122.0 Q 526.4 121.2, 526.4 119.8 Q 526.4 118.3, 525.8 117.5 Q 525.2 116.8, 524.1 116.8 Q 522.9 116.8, 522.3 117.5 Q 521.7 118.3, 521.7 119.8 Q 521.7 121.3, 522.3 122.0 Q 522.9 122.8, 524.1 122.8 " fill="#FF0000"/>
<path class="atom-2" d="M 497.8 80.2 Q 497.8 78.4, 498.7 77.4 Q 499.6 76.4, 501.2 76.4 Q 502.9 76.4, 503.8 77.4 Q 504.6 78.4, 504.6 80.2 Q 504.6 82.0, 503.8 83.0 Q 502.9 84.0, 501.2 84.0 Q 499.6 84.0, 498.7 83.0 Q 497.8 82.0, 497.8 80.2 M 501.2 83.2 Q 502.4 83.2, 503.0 82.4 Q 503.6 81.7, 503.6 80.2 Q 503.6 78.7, 503.0 78.0 Q 502.4 77.2, 501.2 77.2 Q 500.1 77.2, 499.5 78.0 Q 498.8 78.7, 498.8 80.2 Q 498.8 81.7, 499.5 82.4 Q 500.1 83.2, 501.2 83.2 " fill="#FF0000"/>
<path class="atom-2" d="M 505.8 76.5 L 506.8 76.5 L 506.8 79.6 L 510.6 79.6 L 510.6 76.5 L 511.7 76.5 L 511.7 83.9 L 510.6 83.9 L 510.6 80.5 L 506.8 80.5 L 506.8 83.9 L 505.8 83.9 L 505.8 76.5 " fill="#FF0000"/>
<path class="atom-3" d="M 474.3 118.7 Q 474.7 118.7, 475.1 118.9 Q 475.4 119.1, 475.6 119.5 Q 475.8 119.8, 475.8 120.3 Q 475.8 120.8, 475.6 121.1 Q 475.3 121.5, 474.9 121.7 Q 474.5 121.9, 474.1 121.9 Q 473.6 121.9, 473.2 121.7 Q 472.8 121.5, 472.5 121.2 L 472.9 120.8 Q 473.2 121.0, 473.5 121.2 Q 473.8 121.3, 474.1 121.3 Q 474.5 121.3, 474.8 121.0 Q 475.1 120.8, 475.1 120.3 Q 475.1 119.8, 474.8 119.5 Q 474.5 119.3, 474.1 119.3 Q 473.6 119.3, 473.1 119.4 L 472.8 119.3 L 473.0 116.9 L 475.5 116.9 L 475.5 117.4 L 473.6 117.4 L 473.4 118.9 Q 473.9 118.7, 474.3 118.7 " fill="#191919"/>
<path class="atom-3" d="M 477.0 118.9 L 478.1 117.8 L 476.6 117.5 L 476.8 116.7 L 478.2 117.4 L 478.0 115.9 L 478.8 115.9 L 478.5 117.4 L 479.9 116.8 L 480.1 117.5 L 478.7 117.8 L 479.7 118.9 L 479.1 119.3 L 478.3 118.0 L 477.6 119.3 L 477.0 118.9 " fill="#191919"/>
</svg>