<svg xmlns="http://www.w3.org/2000/svg" xmlns:xlink="http://www.w3.org/1999/xlink" width="315pt" height="45pt" viewBox="0.00 0.00 315.00 45.00">
<g id="graph0" class="graph" transform="scale(1 1) rotate(0) translate(4 41)">
<polygon fill="white" stroke="none" points="-4,4 -4,-41 311,-41 311,4 -4,4"/>
<!-- Compound -->
<g id="node1" class="node">
<title>Compound</title>
<polygon fill="#a3c1da" stroke="black" points="0,-0.5 0,-36.5 155.75,-36.5 155.75,-0.5 0,-0.5"/>
<text xml:space="preserve" text-anchor="middle" x="30.88" y="-15" font-family="Times,serif" font-size="10.00">Compound</text>
<polyline fill="none" stroke="black" points="61.75,-1.25 61.75,-36.5"/>
<text xml:space="preserve" text-anchor="middle" x="108.75" y="-15" font-family="Times,serif" font-size="10.00">compound_id (PK)</text>
</g>
<!-- Target -->
<g id="node2" class="node">
<title>Target</title>
<polygon fill="#a3c1da" stroke="black" points="191.75,-0.5 191.75,-36.5 307,-36.5 307,-0.5 191.75,-0.5"/>
<text xml:space="preserve" text-anchor="middle" x="212.5" y="-15" font-family="Times,serif" font-size="10.00">Target</text>
<polyline fill="none" stroke="black" points="233.25,-1.25 233.25,-36.5"/>
<text xml:space="preserve" text-anchor="middle" x="270.12" y="-15" font-family="Times,serif" font-size="10.00">target_id (PK)</text>
</g>
<!-- Compound&#45;&gt;Target -->
<g id="edge1" class="edge">
<title>Compound-&gt;Target</title>
<path fill="none" stroke="black" d="M160.54,-18.5C160.54,-18.5 186.84,-18.5 186.84,-18.5"/>
<polygon fill="black" stroke="black" points="160.43,-18.5 156.43,-16.7 158.1,-18.5 156.77,-18.5 156.77,-18.5 156.77,-18.5 158.1,-18.5 156.43,-20.3 160.43,-18.5"/>
<polygon fill="black" stroke="black" points="186.94,-18.5 190.94,-20.3 189.28,-18.5 190.61,-18.5 190.61,-18.5 190.61,-18.5 189.28,-18.5 190.94,-16.7 186.94,-18.5"/>
</g>
</g>
</svg>