<svg xmlns="http://www.w3.org/2000/svg" xmlns:rdkit="http://www.rdkit.org/xml" xmlns:xlink="http://www.w3.org/1999/xlink" version="1.1" baseProfile="full" xml:space="preserve" width="1000px" height="750px" viewBox="0 0 1000 750">
<!-- END OF HEADER -->
<rect style="opacity:1.0;fill:#FFFFFF;stroke:none" width="1000.0" height="750.0" x="0.0" y="0.0"> </rect>
<path class="bond-0 atom-0 atom-1" d="M 280.8,148.7 L 289.9,140.3" style="fill:none;fill-rule:evenodd;stroke:#FF0000;stroke-width:2.0px;stroke-linecap:butt;stroke-linejoin:miter;stroke-opacity:1"/>
<path class="bond-0 atom-0 atom-1" d="M 289.9,140.3 L 298.9,131.8" style="fill:none;fill-rule:evenodd;stroke:#000000;stroke-width:2.0px;stroke-linecap:butt;stroke-linejoin:miter;stroke-opacity:1"/>
<path class="bond-1 atom-1 atom-2" d="M 298.9,131.8 L 311.6,135.7" style="fill:none;fill-rule:evenodd;stroke:#000000;stroke-width:2.0px;stroke-linecap:butt;stroke-linejoin:miter;stroke-opacity:1"/>
<path class="bond-1 atom-1 atom-2" d="M 311.6,135.7 L 324.2,139.6" style="fill:none;fill-rule:evenodd;stroke:#FF0000;stroke-width:2.0px;stroke-linecap:butt;stroke-linejoin:miter;stroke-opacity:1"/>
<path class="bond-2 atom-2 atom-3" d="M 334.6,136.3 L 343.7,127.8" style="fill:none;fill-rule:evenodd;stroke:#FF0000;stroke-width:2.0px;stroke-linecap:butt;stroke-linejoin:miter;stroke-opacity:1"/>
<path class="bond-2 atom-2 atom-3" d="M 343.7,127.8 L 352.8,119.4" style="fill:none;fill-rule:evenodd;stroke:#000000;stroke-width:2.0px;stroke-linecap:butt;stroke-linejoin:miter;stroke-opacity:1"/>
<path class="bond-3 atom-3 atom-4" d="M 352.8,119.4 L 345.6,88.3" style="fill:none;fill-rule:evenodd;stroke:#000000;stroke-width:2.0px;stroke-linecap:butt;stroke-linejoin:miter;stroke-opacity:1"/>
<path class="bond-3 atom-3 atom-4" d="M 356.8,115.6 L 350.9,89.9" style="fill:none;fill-rule:evenodd;stroke:#000000;stroke-width:2.0px;stroke-linecap:butt;stroke-linejoin:miter;stroke-opacity:1"/>
<path class="bond-4 atom-4 atom-5" d="M 345.6,88.3 L 369.0,66.5" style="fill:none;fill-rule:evenodd;stroke:#000000;stroke-width:2.0px;stroke-linecap:butt;stroke-linejoin:miter;stroke-opacity:1"/>
<path class="bond-5 atom-5 atom-6" d="M 369.0,66.5 L 399.5,75.9" style="fill:none;fill-rule:evenodd;stroke:#000000;stroke-width:2.0px;stroke-linecap:butt;stroke-linejoin:miter;stroke-opacity:1"/>
<path class="bond-5 atom-5 atom-6" d="M 370.2,71.9 L 395.4,79.6" style="fill:none;fill-rule:evenodd;stroke:#000000;stroke-width:2.0px;stroke-linecap:butt;stroke-linejoin:miter;stroke-opacity:1"/>
<path class="bond-6 atom-6 atom-7" d="M 399.5,75.9 L 406.7,107.0" style="fill:none;fill-rule:evenodd;stroke:#000000;stroke-width:2.0px;stroke-linecap:butt;stroke-linejoin:miter;stroke-opacity:1"/>
<path class="bond-7 atom-7 atom-8" d="M 406.7,107.0 L 419.3,110.8" style="fill:none;fill-rule:evenodd;stroke:#000000;stroke-width:2.0px;stroke-linecap:butt;stroke-linejoin:miter;stroke-opacity:1"/>
<path class="bond-7 atom-7 atom-8" d="M 419.3,110.8 L 432.0,114.7" style="fill:none;fill-rule:evenodd;stroke:#FF0000;stroke-width:2.0px;stroke-linecap:butt;stroke-linejoin:miter;stroke-opacity:1"/>
<path class="bond-8 atom-8 atom-9" d="M 438.5,122.1 L 441.4,134.7" style="fill:none;fill-rule:evenodd;stroke:#FF0000;stroke-width:2.0px;stroke-linecap:butt;stroke-linejoin:miter;stroke-opacity:1"/>
<path class="bond-8 atom-8 atom-9" d="M 441.4,134.7 L 444.4,147.4" style="fill:none;fill-rule:evenodd;stroke:#000000;stroke-width:2.0px;stroke-linecap:butt;stroke-linejoin:miter;stroke-opacity:1"/>
<path class="bond-9 atom-9 atom-10" d="M 444.4,147.4 L 457.0,151.3" style="fill:none;fill-rule:evenodd;stroke:#000000;stroke-width:2.0px;stroke-linecap:butt;stroke-linejoin:miter;stroke-opacity:1"/>
<path class="bond-9 atom-9 atom-10" d="M 457.0,151.3 L 469.7,155.2" style="fill:none;fill-rule:evenodd;stroke:#FF0000;stroke-width:2.0px;stroke-linecap:butt;stroke-linejoin:miter;stroke-opacity:1"/>
<path class="bond-10 atom-7 atom-11" d="M 406.7,107.0 L 397.2,115.8" style="fill:none;fill-rule:evenodd;stroke:#000000;stroke-width:2.0px;stroke-linecap:butt;stroke-linejoin:miter;stroke-opacity:1"/>
<path class="bond-10 atom-7 atom-11" d="M 397.2,115.8 L 387.8,124.6" style="fill:none;fill-rule:evenodd;stroke:#0000FF;stroke-width:2.0px;stroke-linecap:butt;stroke-linejoin:miter;stroke-opacity:1"/>
<path class="bond-10 atom-7 atom-11" d="M 401.4,105.4 L 393.0,113.2" style="fill:none;fill-rule:evenodd;stroke:#000000;stroke-width:2.0px;stroke-linecap:butt;stroke-linejoin:miter;stroke-opacity:1"/>
<path class="bond-10 atom-7 atom-11" d="M 393.0,113.2 L 384.5,121.1" style="fill:none;fill-rule:evenodd;stroke:#0000FF;stroke-width:2.0px;stroke-linecap:butt;stroke-linejoin:miter;stroke-opacity:1"/>
<path class="bond-11 atom-11 atom-3" d="M 378.8,127.4 L 365.8,123.4" style="fill:none;fill-rule:evenodd;stroke:#0000FF;stroke-width:2.0px;stroke-linecap:butt;stroke-linejoin:miter;stroke-opacity:1"/>
<path class="bond-11 atom-11 atom-3" d="M 365.8,123.4 L 352.8,119.4" style="fill:none;fill-rule:evenodd;stroke:#000000;stroke-width:2.0px;stroke-linecap:butt;stroke-linejoin:miter;stroke-opacity:1"/>
<path d="M 298.5,132.2 L 298.9,131.8 L 299.6,132.0" style="fill:none;stroke:#000000;stroke-width:2.0px;stroke-linecap:butt;stroke-linejoin:miter;stroke-opacity:1;"/>
<path d="M 346.0,89.8 L 345.6,88.3 L 346.8,87.2" style="fill:none;stroke:#000000;stroke-width:2.0px;stroke-linecap:butt;stroke-linejoin:miter;stroke-opacity:1;"/>
<path d="M 367.8,67.6 L 369.0,66.5 L 370.5,67.0" style="fill:none;stroke:#000000;stroke-width:2.0px;stroke-linecap:butt;stroke-linejoin:miter;stroke-opacity:1;"/>
<path d="M 398.0,75.4 L 399.5,75.9 L 399.9,77.4" style="fill:none;stroke:#000000;stroke-width:2.0px;stroke-linecap:butt;stroke-linejoin:miter;stroke-opacity:1;"/>
<path d="M 444.2,146.8 L 444.4,147.4 L 445.0,147.6" style="fill:none;stroke:#000000;stroke-width:2.0px;stroke-linecap:butt;stroke-linejoin:miter;stroke-opacity:1;"/>
<path class="atom-0" d="M 262.5 149.1 L 263.7 149.1 L 263.7 152.9 L 268.3 152.9 L 268.3 149.1 L 269.6 149.1 L 269.6 158.1 L 268.3 158.1 L 268.3 154.0 L 263.7 154.0 L 263.7 158.1 L 262.5 158.1 L 262.5 149.1 " fill="#FF0000"/>
<path class="atom-0" d="M 271.4 153.6 Q 271.4 151.4, 272.5 150.2 Q 273.6 149.0, 275.6 149.0 Q 277.6 149.0, 278.7 150.2 Q 279.7 151.4, 279.7 153.6 Q 279.7 155.8, 278.6 157.0 Q 277.6 158.3, 275.6 158.3 Q 273.6 158.3, 272.5 157.0 Q 271.4 155.8, 271.4 153.6 M 275.6 157.3 Q 277.0 157.3, 277.7 156.3 Q 278.4 155.4, 278.4 153.6 Q 278.4 151.8, 277.7 150.9 Q 277.0 150.0, 275.6 150.0 Q 274.2 150.0, 273.4 150.9 Q 272.7 151.8, 272.7 153.6 Q 272.7 155.4, 273.4 156.3 Q 274.2 157.3, 275.6 157.3 " fill="#FF0000"/>
<path class="atom-2" d="M 325.3 141.2 Q 325.3 139.0, 326.4 137.8 Q 327.4 136.6, 329.4 136.6 Q 331.4 136.6, 332.5 137.8 Q 333.6 139.0, 333.6 141.2 Q 333.6 143.4, 332.5 144.6 Q 331.4 145.9, 329.4 145.9 Q 327.5 145.9, 326.4 144.6 Q 325.3 143.4, 325.3 141.2 M 329.4 144.8 Q 330.8 144.8, 331.6 143.9 Q 332.3 143.0, 332.3 141.2 Q 332.3 139.4, 331.6 138.5 Q 330.8 137.6, 329.4 137.6 Q 328.1 137.6, 327.3 138.5 Q 326.6 139.4, 326.6 141.2 Q 326.6 143.0, 327.3 143.9 Q 328.1 144.8, 329.4 144.8 " fill="#FF0000"/>
<path class="atom-8" d="M 433.0 116.3 Q 433.0 114.2, 434.1 113.0 Q 435.2 111.7, 437.2 111.7 Q 439.2 111.7, 440.3 113.0 Q 441.3 114.2, 441.3 116.3 Q 441.3 118.5, 440.2 119.8 Q 439.2 121.0, 437.2 121.0 Q 435.2 121.0, 434.1 119.8 Q 433.0 118.5, 433.0 116.3 M 437.2 120.0 Q 438.6 120.0, 439.3 119.1 Q 440.1 118.2, 440.1 116.3 Q 440.1 114.6, 439.3 113.7 Q 438.6 112.8, 437.2 112.8 Q 435.8 112.8, 435.0 113.7 Q 434.3 114.6, 434.3 116.3 Q 434.3 118.2, 435.0 119.1 Q 435.8 120.0, 437.2 120.0 " fill="#FF0000"/>
<path class="atom-10" d="M 470.7 156.8 Q 470.7 154.6, 471.8 153.4 Q 472.9 152.2, 474.9 152.2 Q 476.9 152.2, 477.9 153.4 Q 479.0 154.6, 479.0 156.8 Q 479.0 159.0, 477.9 160.2 Q 476.8 161.5, 474.9 161.5 Q 472.9 161.5, 471.8 160.2 Q 470.7 159.0, 470.7 156.8 M 474.9 160.4 Q 476.2 160.4, 477.0 159.5 Q 477.7 158.6, 477.7 156.8 Q 477.7 155.0, 477.0 154.1 Q 476.2 153.2, 474.9 153.2 Q 473.5 153.2, 472.7 154.1 Q 472.0 155.0, 472.0 156.8 Q 472.0 158.6, 472.7 159.5 Q 473.5 160.4, 474.9 160.4 " fill="#FF0000"/>
<path class="atom-10" d="M 480.4 152.3 L 481.7 152.3 L 481.7 156.1 L 486.3 156.1 L 486.3 152.3 L 487.5 152.3 L 487.5 161.3 L 486.3 161.3 L 486.3 157.2 L 481.7 157.2 L 481.7 161.3 L 480.4 161.3 L 480.4 152.3 " fill="#FF0000"/>
<path class="atom-11" d="M 381.3 124.2 L 384.3 129.0 Q 384.6 129.5, 385.0 130.3 Q 385.5 131.2, 385.5 131.2 L 385.5 124.2 L 386.7 124.2 L 386.7 133.3 L 385.5 133.3 L 382.3 128.0 Q 382.0 127.4, 381.6 126.7 Q 381.2 126.0, 381.1 125.8 L 381.1 133.3 L 379.9 133.3 L 379.9 124.2 L 381.3 124.2 " fill="#0000FF"/>
<path class="legend" d="M 286.1 225.9 Q 286.1 222.5, 287.7 220.6 Q 289.4 218.7, 292.6 218.7 Q 295.7 218.7, 297.4 220.6 Q 299.1 222.5, 299.1 225.9 Q 299.1 229.4, 297.4 231.3 Q 295.7 233.3, 292.6 233.3 Q 289.4 233.3, 287.7 231.3 Q 286.1 229.4, 286.1 225.9 M 292.6 231.7 Q 294.7 231.7, 295.9 230.2 Q 297.1 228.8, 297.1 225.9 Q 297.1 223.2, 295.9 221.8 Q 294.7 220.3, 292.6 220.3 Q 290.4 220.3, 289.2 221.7 Q 288.1 223.1, 288.1 225.9 Q 288.1 228.8, 289.2 230.2 Q 290.4 231.7, 292.6 231.7 " fill="#000000"/>
<path class="legend" d="M 301.0 226.0 Q 301.0 222.4, 302.6 220.6 Q 304.3 218.7, 307.4 218.7 Q 310.4 218.7, 311.9 220.8 L 310.6 221.9 Q 309.5 220.4, 307.4 220.4 Q 305.3 220.4, 304.2 221.8 Q 303.0 223.2, 303.0 226.0 Q 303.0 228.8, 304.2 230.2 Q 305.4 231.6, 307.7 231.6 Q 309.2 231.6, 311.0 230.7 L 311.6 232.2 Q 310.9 232.7, 309.7 233.0 Q 308.6 233.2, 307.4 233.2 Q 304.3 233.2, 302.6 231.4 Q 301.0 229.5, 301.0 226.0 " fill="#000000"/>
<path class="legend" d="M 313.7 225.9 Q 313.7 222.5, 315.3 220.6 Q 317.0 218.7, 320.2 218.7 Q 323.3 218.7, 325.0 220.6 Q 326.7 222.5, 326.7 225.9 Q 326.7 229.4, 325.0 231.3 Q 323.3 233.3, 320.2 233.3 Q 317.0 233.3, 315.3 231.3 Q 313.7 229.4, 313.7 225.9 M 320.2 231.7 Q 322.3 231.7, 323.5 230.2 Q 324.7 228.8, 324.7 225.9 Q 324.7 223.2, 323.5 221.8 Q 322.3 220.3, 320.2 220.3 Q 318.0 220.3, 316.8 221.7 Q 315.7 223.1, 315.7 225.9 Q 315.7 228.8, 316.8 230.2 Q 318.0 231.7, 320.2 231.7 " fill="#000000"/>
<path class="legend" d="M 328.6 227.9 Q 328.6 225.4, 329.8 224.0 Q 331.1 222.6, 333.5 222.6 Q 335.9 222.6, 337.1 224.3 L 335.8 225.2 Q 335.3 224.7, 334.8 224.4 Q 334.2 224.1, 333.5 224.1 Q 332.1 224.1, 331.3 225.1 Q 330.5 226.0, 330.5 227.9 Q 330.5 229.8, 331.3 230.8 Q 332.1 231.7, 333.6 231.7 Q 334.5 231.7, 335.1 231.6 Q 335.6 231.4, 336.4 231.0 L 336.9 232.3 Q 335.4 233.2, 333.5 233.2 Q 331.1 233.2, 329.8 231.8 Q 328.6 230.4, 328.6 227.9 " fill="#000000"/>
<path class="legend" d="M 339.3 231.5 L 342.4 231.5 L 342.4 220.9 L 339.0 221.9 L 338.5 220.8 L 342.8 218.8 L 344.3 219.1 L 344.3 231.5 L 347.0 231.5 L 347.0 233.1 L 339.3 233.1 L 339.3 231.5 " fill="#000000"/>
<path class="legend" d="M 348.8 227.9 Q 348.8 225.4, 350.1 224.0 Q 351.3 222.6, 353.8 222.6 Q 356.1 222.6, 357.3 224.3 L 356.1 225.2 Q 355.6 224.7, 355.0 224.4 Q 354.5 224.1, 353.8 224.1 Q 352.3 224.1, 351.5 225.1 Q 350.8 226.0, 350.8 227.9 Q 350.8 229.8, 351.6 230.8 Q 352.4 231.7, 353.9 231.7 Q 354.7 231.7, 355.3 231.6 Q 355.9 231.4, 356.6 231.0 L 357.1 232.3 Q 355.6 233.2, 353.7 233.2 Q 351.3 233.2, 350.1 231.8 Q 348.8 230.4, 348.8 227.9 " fill="#000000"/>
<path class="legend" d="M 358.7 227.9 Q 358.7 225.4, 360.0 224.0 Q 361.2 222.6, 363.7 222.6 Q 366.0 222.6, 367.2 224.3 L 366.0 225.2 Q 365.5 224.7, 364.9 224.4 Q 364.4 224.1, 363.7 224.1 Q 362.2 224.1, 361.4 225.1 Q 360.7 226.0, 360.7 227.9 Q 360.7 229.8, 361.5 230.8 Q 362.3 231.7, 363.8 231.7 Q 364.6 231.7, 365.2 231.6 Q 365.8 231.4, 366.5 231.0 L 367.0 232.3 Q 365.5 233.2, 363.6 233.2 Q 361.2 233.2, 360.0 231.8 Q 358.7 230.4, 358.7 227.9 " fill="#000000"/>
<path class="legend" d="M 368.6 227.9 Q 368.6 225.4, 369.9 224.0 Q 371.1 222.6, 373.6 222.6 Q 375.9 222.6, 377.1 224.3 L 375.9 225.2 Q 375.4 224.7, 374.8 224.4 Q 374.3 224.1, 373.6 224.1 Q 372.1 224.1, 371.3 225.1 Q 370.6 226.0, 370.6 227.9 Q 370.6 229.8, 371.4 230.8 Q 372.2 231.7, 373.7 231.7 Q 374.5 231.7, 375.1 231.6 Q 375.7 231.4, 376.4 231.0 L 376.9 232.3 Q 375.4 233.2, 373.5 233.2 Q 371.1 233.2, 369.9 231.8 Q 368.6 230.4, 368.6 227.9 " fill="#000000"/>
<path class="legend" d="M 378.5 227.9 Q 378.5 225.4, 379.8 224.0 Q 381.0 222.6, 383.5 222.6 Q 385.8 222.6, 387.0 224.3 L 385.8 225.2 Q 385.3 224.7, 384.7 224.4 Q 384.2 224.1, 383.5 224.1 Q 382.0 224.1, 381.2 225.1 Q 380.5 226.0, 380.5 227.9 Q 380.5 229.8, 381.3 230.8 Q 382.1 231.7, 383.6 231.7 Q 384.4 231.7, 385.0 231.6 Q 385.6 231.4, 386.3 231.0 L 386.8 232.3 Q 385.3 233.2, 383.4 233.2 Q 381.0 233.2, 379.8 231.8 Q 378.5 230.4, 378.5 227.9 " fill="#000000"/>
<path class="legend" d="M 388.4 227.4 Q 388.4 224.5, 389.3 222.1 Q 390.1 219.8, 391.7 217.2 L 392.8 217.9 Q 391.5 220.3, 390.9 222.5 Q 390.2 224.6, 390.2 227.4 Q 390.2 230.1, 390.9 232.2 Q 391.5 234.3, 392.8 236.8 L 391.7 237.5 Q 390.1 235.0, 389.3 232.6 Q 388.4 230.3, 388.4 227.4 " fill="#000000"/>
<path class="legend" d="M 394.3 225.9 Q 394.3 222.5, 396.0 220.6 Q 397.6 218.7, 400.8 218.7 Q 403.9 218.7, 405.6 220.6 Q 407.3 222.5, 407.3 225.9 Q 407.3 229.4, 405.6 231.3 Q 403.9 233.3, 400.8 233.3 Q 397.7 233.3, 396.0 231.3 Q 394.3 229.4, 394.3 225.9 M 400.8 231.7 Q 402.9 231.7, 404.1 230.2 Q 405.3 228.8, 405.3 225.9 Q 405.3 223.2, 404.1 221.8 Q 402.9 220.3, 400.8 220.3 Q 398.6 220.3, 397.4 221.7 Q 396.3 223.1, 396.3 225.9 Q 396.3 228.8, 397.4 230.2 Q 398.6 231.7, 400.8 231.7 " fill="#000000"/>
<path class="legend" d="M 409.2 226.0 Q 409.2 222.4, 410.9 220.6 Q 412.5 218.7, 415.7 218.7 Q 418.6 218.7, 420.2 220.8 L 418.8 221.9 Q 417.7 220.4, 415.7 220.4 Q 413.5 220.4, 412.4 221.8 Q 411.3 223.2, 411.3 226.0 Q 411.3 228.8, 412.4 230.2 Q 413.6 231.6, 415.9 231.6 Q 417.5 231.6, 419.3 230.7 L 419.8 232.2 Q 419.1 232.7, 418.0 233.0 Q 416.9 233.2, 415.6 233.2 Q 412.5 233.2, 410.9 231.4 Q 409.2 229.5, 409.2 226.0 " fill="#000000"/>
<path class="legend" d="M 421.9 225.9 Q 421.9 222.5, 423.6 220.6 Q 425.3 218.7, 428.4 218.7 Q 431.5 218.7, 433.2 220.6 Q 434.9 222.5, 434.9 225.9 Q 434.9 229.4, 433.2 231.3 Q 431.5 233.3, 428.4 233.3 Q 425.3 233.3, 423.6 231.3 Q 421.9 229.4, 421.9 225.9 M 428.4 231.7 Q 430.6 231.7, 431.7 230.2 Q 432.9 228.8, 432.9 225.9 Q 432.9 223.2, 431.7 221.8 Q 430.6 220.3, 428.4 220.3 Q 426.2 220.3, 425.1 221.7 Q 423.9 223.1, 423.9 225.9 Q 423.9 228.8, 425.1 230.2 Q 426.2 231.7, 428.4 231.7 " fill="#000000"/>
<path class="legend" d="M 441.2 227.4 Q 441.2 230.3, 440.4 232.6 Q 439.6 235.0, 438.0 237.5 L 436.8 236.8 Q 438.1 234.3, 438.8 232.2 Q 439.4 230.1, 439.4 227.4 Q 439.4 224.6, 438.8 222.5 Q 438.1 220.3, 436.8 217.9 L 438.0 217.2 Q 439.6 219.8, 440.4 222.1 Q 441.2 224.5, 441.2 227.4 " fill="#000000"/>
<path class="legend" d="M 448.5 222.6 Q 450.2 222.6, 451.0 223.5 Q 451.9 224.5, 451.9 226.3 L 451.9 233.1 L 450.0 233.1 L 450.0 226.4 Q 450.0 225.2, 449.6 224.6 Q 449.1 224.1, 448.1 224.1 Q 447.1 224.1, 446.3 224.5 Q 445.6 224.9, 445.1 225.7 L 445.1 233.1 L 443.2 233.1 L 443.2 222.8 L 444.7 222.8 L 444.9 224.2 Q 446.3 222.6, 448.5 222.6 " fill="#000000"/>
<path class="legend" d="M 455.2 231.5 L 458.3 231.5 L 458.3 220.9 L 454.9 221.9 L 454.4 220.8 L 458.7 218.8 L 460.2 219.1 L 460.2 231.5 L 462.9 231.5 L 462.9 233.1 L 455.2 233.1 L 455.2 231.5 " fill="#000000"/>
<path class="bond-0 atom-0 atom-1" d="M 345.3,367.8 L 357.5,360.7" style="fill:none;fill-rule:evenodd;stroke:#191919;stroke-width:2.0px;stroke-linecap:butt;stroke-linejoin:miter;stroke-opacity:1"/>
<path class="bond-0 atom-0 atom-1" d="M 357.5,360.7 L 369.8,353.7" style="fill:none;fill-rule:evenodd;stroke:#000000;stroke-width:2.0px;stroke-linecap:butt;stroke-linejoin:miter;stroke-opacity:1"/>
<path class="bond-1 atom-1 atom-2" d="M 369.8,353.7 L 381.0,360.1" style="fill:none;fill-rule:evenodd;stroke:#000000;stroke-width:2.0px;stroke-linecap:butt;stroke-linejoin:miter;stroke-opacity:1"/>
<path class="bond-1 atom-1 atom-2" d="M 381.0,360.1 L 392.2,366.6" style="fill:none;fill-rule:evenodd;stroke:#FF0000;stroke-width:2.0px;stroke-linecap:butt;stroke-linejoin:miter;stroke-opacity:1"/>
<path d="M 369.1,354.0 L 369.8,353.7 L 370.3,354.0" style="fill:none;stroke:#000000;stroke-width:2.0px;stroke-linecap:butt;stroke-linejoin:miter;stroke-opacity:1;"/>
<path class="atom-0" d="M 340.4 368.6 L 341.7 367.3 L 340.0 366.9 L 340.2 366.0 L 341.9 366.8 L 341.6 365.0 L 342.6 365.0 L 342.3 366.8 L 344.0 366.0 L 344.3 366.9 L 342.5 367.2 L 343.7 368.6 L 343.0 369.2 L 342.1 367.5 L 341.2 369.2 L 340.4 368.6 " fill="#191919"/>
<path class="atom-2" d="M 393.2 369.6 Q 393.2 367.5, 394.3 366.3 Q 395.4 365.1, 397.4 365.1 Q 399.4 365.1, 400.5 366.3 Q 401.5 367.5, 401.5 369.6 Q 401.5 371.8, 400.5 373.1 Q 399.4 374.3, 397.4 374.3 Q 395.4 374.3, 394.3 373.1 Q 393.2 371.9, 393.2 369.6 M 397.4 373.3 Q 398.8 373.3, 399.5 372.4 Q 400.3 371.5, 400.3 369.6 Q 400.3 367.9, 399.5 367.0 Q 398.8 366.1, 397.4 366.1 Q 396.0 366.1, 395.3 367.0 Q 394.5 367.9, 394.5 369.6 Q 394.5 371.5, 395.3 372.4 Q 396.0 373.3, 397.4 373.3 " fill="#FF0000"/>
<path class="atom-2" d="M 403.0 365.2 L 404.2 365.2 L 404.2 369.0 L 408.8 369.0 L 408.8 365.2 L 410.0 365.2 L 410.0 374.2 L 408.8 374.2 L 408.8 370.0 L 404.2 370.0 L 404.2 374.2 L 403.0 374.2 L 403.0 365.2 " fill="#FF0000"/>
<path class="legend" d="M 358.1 478.5 L 360.2 476.4 L 357.5 475.8 L 357.9 474.4 L 360.4 475.7 L 360.1 472.9 L 361.6 472.9 L 361.1 475.7 L 363.7 474.5 L 364.2 475.8 L 361.4 476.3 L 363.4 478.5 L 362.1 479.4 L 360.8 476.7 L 359.4 479.4 L 358.1 478.5 " fill="#000000"/>
<path class="legend" d="M 365.8 480.2 Q 365.8 476.7, 367.4 474.8 Q 369.1 473.0, 372.2 473.0 Q 375.2 473.0, 376.7 475.0 L 375.4 476.1 Q 374.2 474.6, 372.2 474.6 Q 370.1 474.6, 369.0 476.0 Q 367.8 477.5, 367.8 480.2 Q 367.8 483.0, 369.0 484.4 Q 370.2 485.9, 372.5 485.9 Q 374.0 485.9, 375.8 484.9 L 376.4 486.4 Q 375.7 486.9, 374.5 487.2 Q 373.4 487.5, 372.2 487.5 Q 369.1 487.5, 367.4 485.6 Q 365.8 483.7, 365.8 480.2 " fill="#000000"/>
<path class="legend" d="M 378.5 480.2 Q 378.5 476.8, 380.2 474.9 Q 381.9 473.0, 385.0 473.0 Q 388.2 473.0, 389.9 474.9 Q 391.5 476.8, 391.5 480.2 Q 391.5 483.6, 389.8 485.6 Q 388.1 487.5, 385.0 487.5 Q 381.9 487.5, 380.2 485.6 Q 378.5 483.6, 378.5 480.2 M 385.0 485.9 Q 387.2 485.9, 388.4 484.5 Q 389.5 483.0, 389.5 480.2 Q 389.5 477.4, 388.4 476.0 Q 387.2 474.6, 385.0 474.6 Q 382.9 474.6, 381.7 476.0 Q 380.5 477.4, 380.5 480.2 Q 380.5 483.0, 381.7 484.5 Q 382.9 485.9, 385.0 485.9 " fill="#000000"/>
<path class="bond-0 atom-0 atom-1" d="M 552.6,401.6 L 558.2,390.1" style="fill:none;fill-rule:evenodd;stroke:#191919;stroke-width:2.0px;stroke-linecap:butt;stroke-linejoin:miter;stroke-opacity:1"/>
<path class="bond-0 atom-0 atom-1" d="M 558.2,390.1 L 563.9,378.6" style="fill:none;fill-rule:evenodd;stroke:#000000;stroke-width:2.0px;stroke-linecap:butt;stroke-linejoin:miter;stroke-opacity:1"/>
<path class="bond-1 atom-1 atom-2" d="M 563.9,378.6 L 546.1,352.1" style="fill:none;fill-rule:evenodd;stroke:#000000;stroke-width:2.0px;stroke-linecap:butt;stroke-linejoin:miter;stroke-opacity:1"/>
<path class="bond-1 atom-1 atom-2" d="M 566.3,373.6 L 551.6,351.7" style="fill:none;fill-rule:evenodd;stroke:#000000;stroke-width:2.0px;stroke-linecap:butt;stroke-linejoin:miter;stroke-opacity:1"/>
<path class="bond-2 atom-2 atom-3" d="M 546.1,352.1 L 560.2,323.4" style="fill:none;fill-rule:evenodd;stroke:#000000;stroke-width:2.0px;stroke-linecap:butt;stroke-linejoin:miter;stroke-opacity:1"/>
<path class="bond-3 atom-3 atom-4" d="M 560.2,323.4 L 592.0,321.2" style="fill:none;fill-rule:evenodd;stroke:#000000;stroke-width:2.0px;stroke-linecap:butt;stroke-linejoin:miter;stroke-opacity:1"/>
<path class="bond-3 atom-3 atom-4" d="M 563.2,328.0 L 589.6,326.2" style="fill:none;fill-rule:evenodd;stroke:#000000;stroke-width:2.0px;stroke-linecap:butt;stroke-linejoin:miter;stroke-opacity:1"/>
<path class="bond-4 atom-4 atom-5" d="M 592.0,321.2 L 609.8,347.7" style="fill:none;fill-rule:evenodd;stroke:#000000;stroke-width:2.0px;stroke-linecap:butt;stroke-linejoin:miter;stroke-opacity:1"/>
<path class="bond-5 atom-5 atom-6" d="M 609.8,347.7 L 623.1,346.8" style="fill:none;fill-rule:evenodd;stroke:#000000;stroke-width:2.0px;stroke-linecap:butt;stroke-linejoin:miter;stroke-opacity:1"/>
<path class="bond-5 atom-5 atom-6" d="M 623.1,346.8 L 636.4,345.9" style="fill:none;fill-rule:evenodd;stroke:#FF0000;stroke-width:2.0px;stroke-linecap:butt;stroke-linejoin:miter;stroke-opacity:1"/>
<path class="bond-6 atom-6 atom-7" d="M 645.5,351.4 L 652.5,361.7" style="fill:none;fill-rule:evenodd;stroke:#FF0000;stroke-width:2.0px;stroke-linecap:butt;stroke-linejoin:miter;stroke-opacity:1"/>
<path class="bond-6 atom-6 atom-7" d="M 652.5,361.7 L 659.4,372.1" style="fill:none;fill-rule:evenodd;stroke:#000000;stroke-width:2.0px;stroke-linecap:butt;stroke-linejoin:miter;stroke-opacity:1"/>
<path class="bond-7 atom-7 atom-8" d="M 659.4,372.1 L 672.7,371.2" style="fill:none;fill-rule:evenodd;stroke:#000000;stroke-width:2.0px;stroke-linecap:butt;stroke-linejoin:miter;stroke-opacity:1"/>
<path class="bond-7 atom-7 atom-8" d="M 672.7,371.2 L 686.1,370.3" style="fill:none;fill-rule:evenodd;stroke:#FF0000;stroke-width:2.0px;stroke-linecap:butt;stroke-linejoin:miter;stroke-opacity:1"/>
<path class="bond-8 atom-5 atom-9" d="M 609.8,347.7 L 604.1,359.3" style="fill:none;fill-rule:evenodd;stroke:#000000;stroke-width:2.0px;stroke-linecap:butt;stroke-linejoin:miter;stroke-opacity:1"/>
<path class="bond-8 atom-5 atom-9" d="M 604.1,359.3 L 598.5,370.8" style="fill:none;fill-rule:evenodd;stroke:#0000FF;stroke-width:2.0px;stroke-linecap:butt;stroke-linejoin:miter;stroke-opacity:1"/>
<path class="bond-8 atom-5 atom-9" d="M 604.3,348.1 L 599.2,358.4" style="fill:none;fill-rule:evenodd;stroke:#000000;stroke-width:2.0px;stroke-linecap:butt;stroke-linejoin:miter;stroke-opacity:1"/>
<path class="bond-8 atom-5 atom-9" d="M 599.2,358.4 L 594.2,368.7" style="fill:none;fill-rule:evenodd;stroke:#0000FF;stroke-width:2.0px;stroke-linecap:butt;stroke-linejoin:miter;stroke-opacity:1"/>
<path class="bond-9 atom-9 atom-1" d="M 591.3,376.7 L 577.6,377.6" style="fill:none;fill-rule:evenodd;stroke:#0000FF;stroke-width:2.0px;stroke-linecap:butt;stroke-linejoin:miter;stroke-opacity:1"/>
<path class="bond-9 atom-9 atom-1" d="M 577.6,377.6 L 563.9,378.6" style="fill:none;fill-rule:evenodd;stroke:#000000;stroke-width:2.0px;stroke-linecap:butt;stroke-linejoin:miter;stroke-opacity:1"/>
<path d="M 547.0,353.4 L 546.1,352.1 L 546.8,350.6" style="fill:none;stroke:#000000;stroke-width:2.0px;stroke-linecap:butt;stroke-linejoin:miter;stroke-opacity:1;"/>
<path d="M 559.5,324.8 L 560.2,323.4 L 561.8,323.3" style="fill:none;stroke:#000000;stroke-width:2.0px;stroke-linecap:butt;stroke-linejoin:miter;stroke-opacity:1;"/>
<path d="M 590.4,321.4 L 592.0,321.2 L 592.9,322.6" style="fill:none;stroke:#000000;stroke-width:2.0px;stroke-linecap:butt;stroke-linejoin:miter;stroke-opacity:1;"/>
<path d="M 659.1,371.6 L 659.4,372.1 L 660.1,372.1" style="fill:none;stroke:#000000;stroke-width:2.0px;stroke-linecap:butt;stroke-linejoin:miter;stroke-opacity:1;"/>
<path class="atom-0" d="M 548.1 406.2 L 549.5 404.8 L 547.7 404.5 L 548.0 403.6 L 549.6 404.4 L 549.4 402.6 L 550.3 402.6 L 550.0 404.4 L 551.7 403.6 L 552.0 404.5 L 550.2 404.8 L 551.5 406.2 L 550.7 406.8 L 549.8 405.1 L 548.9 406.8 L 548.1 406.2 " fill="#191919"/>
<path class="atom-6" d="M 637.5 345.6 Q 637.5 343.5, 638.6 342.2 Q 639.6 341.0, 641.6 341.0 Q 643.6 341.0, 644.7 342.2 Q 645.8 343.5, 645.8 345.6 Q 645.8 347.8, 644.7 349.1 Q 643.6 350.3, 641.6 350.3 Q 639.6 350.3, 638.6 349.1 Q 637.5 347.8, 637.5 345.6 M 641.6 349.3 Q 643.0 349.3, 643.8 348.4 Q 644.5 347.4, 644.5 345.6 Q 644.5 343.8, 643.8 343.0 Q 643.0 342.0, 641.6 342.0 Q 640.3 342.0, 639.5 342.9 Q 638.8 343.8, 638.8 345.6 Q 638.8 347.4, 639.5 348.4 Q 640.3 349.3, 641.6 349.3 " fill="#FF0000"/>
<path class="atom-8" d="M 687.1 370.0 Q 687.1 367.8, 688.2 366.6 Q 689.3 365.4, 691.3 365.4 Q 693.3 365.4, 694.3 366.6 Q 695.4 367.8, 695.4 370.0 Q 695.4 372.2, 694.3 373.4 Q 693.2 374.7, 691.3 374.7 Q 689.3 374.7, 688.2 373.4 Q 687.1 372.2, 687.1 370.0 M 691.3 373.6 Q 692.6 373.6, 693.4 372.7 Q 694.1 371.8, 694.1 370.0 Q 694.1 368.2, 693.4 367.3 Q 692.6 366.4, 691.3 366.4 Q 689.9 366.4, 689.1 367.3 Q 688.4 368.2, 688.4 370.0 Q 688.4 371.8, 689.1 372.7 Q 689.9 373.6, 691.3 373.6 " fill="#FF0000"/>
<path class="atom-8" d="M 696.8 365.5 L 698.0 365.5 L 698.0 369.3 L 702.7 369.3 L 702.7 365.5 L 703.9 365.5 L 703.9 374.5 L 702.7 374.5 L 702.7 370.3 L 698.0 370.3 L 698.0 374.5 L 696.8 374.5 L 696.8 365.5 " fill="#FF0000"/>
<path class="atom-9" d="M 593.7 371.9 L 596.7 376.7 Q 597.0 377.1, 597.5 378.0 Q 597.9 378.9, 598.0 378.9 L 598.0 371.9 L 599.2 371.9 L 599.2 380.9 L 597.9 380.9 L 594.7 375.7 Q 594.4 375.1, 594.0 374.4 Q 593.6 373.7, 593.5 373.5 L 593.5 380.9 L 592.3 380.9 L 592.3 371.9 L 593.7 371.9 " fill="#0000FF"/>
<path class="legend" d="M 554.4 474.3 L 556.5 472.2 L 553.7 471.6 L 554.2 470.2 L 556.7 471.5 L 556.3 468.7 L 557.8 468.7 L 557.4 471.4 L 560.0 470.2 L 560.4 471.6 L 557.6 472.1 L 559.6 474.3 L 558.4 475.1 L 557.0 472.5 L 555.6 475.1 L 554.4 474.3 " fill="#000000"/>
<path class="legend" d="M 561.9 477.9 Q 561.9 475.4, 563.1 474.0 Q 564.4 472.6, 566.8 472.6 Q 569.2 472.6, 570.4 474.3 L 569.1 475.2 Q 568.6 474.7, 568.1 474.4 Q 567.5 474.1, 566.8 474.1 Q 565.4 474.1, 564.6 475.1 Q 563.8 476.0, 563.8 477.9 Q 563.8 479.8, 564.6 480.8 Q 565.4 481.7, 566.9 481.7 Q 567.8 481.7, 568.4 481.6 Q 568.9 481.4, 569.7 481.0 L 570.2 482.3 Q 568.7 483.2, 566.8 483.2 Q 564.4 483.2, 563.1 481.8 Q 561.9 480.4, 561.9 477.9 " fill="#000000"/>
<path class="legend" d="M 572.5 481.5 L 575.6 481.5 L 575.6 470.9 L 572.2 471.9 L 571.7 470.8 L 576.1 468.8 L 577.5 469.1 L 577.5 481.5 L 580.3 481.5 L 580.3 483.1 L 572.5 483.1 L 572.5 481.5 " fill="#000000"/>
<path class="legend" d="M 582.0 477.9 Q 582.0 475.4, 583.2 474.0 Q 584.4 472.6, 586.9 472.6 Q 589.2 472.6, 590.4 474.3 L 589.2 475.2 Q 588.7 474.7, 588.1 474.4 Q 587.6 474.1, 586.9 474.1 Q 585.5 474.1, 584.7 475.1 Q 583.9 476.0, 583.9 477.9 Q 583.9 479.8, 584.7 480.8 Q 585.5 481.7, 587.0 481.7 Q 587.8 481.7, 588.4 481.6 Q 589.0 481.4, 589.7 481.0 L 590.2 482.3 Q 588.8 483.2, 586.9 483.2 Q 584.4 483.2, 583.2 481.8 Q 582.0 480.4, 582.0 477.9 " fill="#000000"/>
<path class="legend" d="M 591.8 477.9 Q 591.8 475.4, 593.0 474.0 Q 594.3 472.6, 596.7 472.6 Q 599.0 472.6, 600.3 474.3 L 599.0 475.2 Q 598.5 474.7, 598.0 474.4 Q 597.4 474.1, 596.7 474.1 Q 595.3 474.1, 594.5 475.1 Q 593.7 476.0, 593.7 477.9 Q 593.7 479.8, 594.5 480.8 Q 595.3 481.7, 596.8 481.7 Q 597.7 481.7, 598.2 481.6 Q 598.8 481.4, 599.5 481.0 L 600.1 482.3 Q 598.6 483.2, 596.7 483.2 Q 594.3 483.2, 593.0 481.8 Q 591.8 480.4, 591.8 477.9 " fill="#000000"/>
<path class="legend" d="M 601.6 477.9 Q 601.6 475.4, 602.8 474.0 Q 604.1 472.6, 606.5 472.6 Q 608.9 472.6, 610.1 474.3 L 608.8 475.2 Q 608.3 474.7, 607.8 474.4 Q 607.2 474.1, 606.5 474.1 Q 605.1 474.1, 604.3 475.1 Q 603.5 476.0, 603.5 477.9 Q 603.5 479.8, 604.3 480.8 Q 605.1 481.7, 606.6 481.7 Q 607.5 481.7, 608.1 481.6 Q 608.6 481.4, 609.4 481.0 L 609.9 482.3 Q 608.4 483.2, 606.5 483.2 Q 604.1 483.2, 602.8 481.8 Q 601.6 480.4, 601.6 477.9 " fill="#000000"/>
<path class="legend" d="M 611.4 477.9 Q 611.4 475.4, 612.7 474.0 Q 613.9 472.6, 616.3 472.6 Q 618.7 472.6, 619.9 474.3 L 618.6 475.2 Q 618.2 474.7, 617.6 474.4 Q 617.1 474.1, 616.3 474.1 Q 614.9 474.1, 614.1 475.1 Q 613.3 476.0, 613.3 477.9 Q 613.3 479.8, 614.1 480.8 Q 615.0 481.7, 616.5 481.7 Q 617.3 481.7, 617.9 481.6 Q 618.5 481.4, 619.2 481.0 L 619.7 482.3 Q 618.2 483.2, 616.3 483.2 Q 613.9 483.2, 612.7 481.8 Q 611.4 480.4, 611.4 477.9 " fill="#000000"/>
<path class="legend" d="M 621.3 477.4 Q 621.3 474.5, 622.1 472.1 Q 622.9 469.8, 624.5 467.2 L 625.7 467.9 Q 624.4 470.3, 623.7 472.5 Q 623.1 474.6, 623.1 477.4 Q 623.1 480.1, 623.7 482.2 Q 624.4 484.3, 625.7 486.8 L 624.5 487.5 Q 622.9 485.0, 622.1 482.6 Q 621.3 480.3, 621.3 477.4 " fill="#000000"/>
<path class="legend" d="M 627.0 475.9 Q 627.0 472.5, 628.7 470.6 Q 630.4 468.7, 633.5 468.7 Q 636.7 468.7, 638.3 470.6 Q 640.0 472.5, 640.0 475.9 Q 640.0 479.4, 638.3 481.3 Q 636.6 483.3, 633.5 483.3 Q 630.4 483.3, 628.7 481.3 Q 627.0 479.4, 627.0 475.9 M 633.5 481.7 Q 635.7 481.7, 636.8 480.2 Q 638.0 478.8, 638.0 475.9 Q 638.0 473.2, 636.8 471.8 Q 635.7 470.3, 633.5 470.3 Q 631.4 470.3, 630.2 471.7 Q 629.0 473.1, 629.0 475.9 Q 629.0 478.8, 630.2 480.2 Q 631.4 481.7, 633.5 481.7 " fill="#000000"/>
<path class="legend" d="M 641.9 476.0 Q 641.9 472.4, 643.5 470.6 Q 645.2 468.7, 648.3 468.7 Q 651.2 468.7, 652.8 470.8 L 651.5 471.9 Q 650.3 470.4, 648.3 470.4 Q 646.2 470.4, 645.0 471.8 Q 643.9 473.2, 643.9 476.0 Q 643.9 478.8, 645.1 480.2 Q 646.3 481.6, 648.5 481.6 Q 650.1 481.6, 651.9 480.7 L 652.5 482.2 Q 651.7 482.7, 650.6 483.0 Q 649.5 483.2, 648.3 483.2 Q 645.2 483.2, 643.5 481.4 Q 641.9 479.5, 641.9 476.0 " fill="#000000"/>
<path class="legend" d="M 654.5 475.9 Q 654.5 472.5, 656.1 470.6 Q 657.8 468.7, 661.0 468.7 Q 664.1 468.7, 665.8 470.6 Q 667.5 472.5, 667.5 475.9 Q 667.5 479.4, 665.8 481.3 Q 664.1 483.3, 661.0 483.3 Q 657.8 483.3, 656.1 481.3 Q 654.5 479.4, 654.5 475.9 M 661.0 481.7 Q 663.1 481.7, 664.3 480.2 Q 665.5 478.8, 665.5 475.9 Q 665.5 473.2, 664.3 471.8 Q 663.1 470.3, 661.0 470.3 Q 658.8 470.3, 657.6 471.7 Q 656.5 473.1, 656.5 475.9 Q 656.5 478.8, 657.6 480.2 Q 658.8 481.7, 661.0 481.7 " fill="#000000"/>
<path class="legend" d="M 673.7 477.4 Q 673.7 480.3, 672.9 482.6 Q 672.1 485.0, 670.4 487.5 L 669.3 486.8 Q 670.6 484.3, 671.3 482.2 Q 671.9 480.1, 671.9 477.4 Q 671.9 474.6, 671.3 472.5 Q 670.6 470.3, 669.3 467.9 L 670.4 467.2 Q 672.1 469.8, 672.9 472.1 Q 673.7 474.5, 673.7 477.4 " fill="#000000"/>
<path class="legend" d="M 680.9 472.6 Q 682.6 472.6, 683.4 473.5 Q 684.3 474.5, 684.3 476.3 L 684.3 483.1 L 682.4 483.1 L 682.4 476.4 Q 682.4 475.2, 682.0 474.6 Q 681.5 474.1, 680.5 474.1 Q 679.5 474.1, 678.7 474.5 Q 678.0 474.9, 677.5 475.7 L 677.5 483.1 L 675.6 483.1 L 675.6 472.8 L 677.1 472.8 L 677.3 474.2 Q 678.7 472.6, 680.9 472.6 " fill="#000000"/>
<path class="legend" d="M 687.5 481.5 L 690.6 481.5 L 690.6 470.9 L 687.2 471.9 L 686.7 470.8 L 691.1 468.8 L 692.5 469.1 L 692.5 481.5 L 695.3 481.5 L 695.3 483.1 L 687.5 483.1 L 687.5 481.5 " fill="#000000"/>
<path class="bond-0 atom-0 atom-1" d="M 595.3,617.8 L 607.5,610.7" style="fill:none;fill-rule:evenodd;stroke:#191919;stroke-width:2.0px;stroke-linecap:butt;stroke-linejoin:miter;stroke-opacity:1"/>
<path class="bond-0 atom-0 atom-1" d="M 607.5,610.7 L 619.8,603.7" style="fill:none;fill-rule:evenodd;stroke:#000000;stroke-width:2.0px;stroke-linecap:butt;stroke-linejoin:miter;stroke-opacity:1"/>
<path class="bond-1 atom-1 atom-2" d="M 619.8,603.7 L 631.0,610.1" style="fill:none;fill-rule:evenodd;stroke:#000000;stroke-width:2.0px;stroke-linecap:butt;stroke-linejoin:miter;stroke-opacity:1"/>
<path class="bond-1 atom-1 atom-2" d="M 631.0,610.1 L 642.2,616.6" style="fill:none;fill-rule:evenodd;stroke:#FF0000;stroke-width:2.0px;stroke-linecap:butt;stroke-linejoin:miter;stroke-opacity:1"/>
<path d="M 619.1,604.0 L 619.8,603.7 L 620.3,604.0" style="fill:none;stroke:#000000;stroke-width:2.0px;stroke-linecap:butt;stroke-linejoin:miter;stroke-opacity:1;"/>
<path class="atom-0" d="M 590.4 618.6 L 591.7 617.3 L 590.0 616.9 L 590.2 616.0 L 591.9 616.8 L 591.6 615.0 L 592.6 615.0 L 592.3 616.8 L 594.0 616.0 L 594.3 616.9 L 592.5 617.2 L 593.7 618.6 L 593.0 619.2 L 592.1 617.5 L 591.2 619.2 L 590.4 618.6 " fill="#191919"/>
<path class="atom-2" d="M 643.2 619.6 Q 643.2 617.5, 644.3 616.3 Q 645.4 615.1, 647.4 615.1 Q 649.4 615.1, 650.5 616.3 Q 651.5 617.5, 651.5 619.6 Q 651.5 621.8, 650.5 623.1 Q 649.4 624.3, 647.4 624.3 Q 645.4 624.3, 644.3 623.1 Q 643.2 621.9, 643.2 619.6 M 647.4 623.3 Q 648.8 623.3, 649.5 622.4 Q 650.3 621.5, 650.3 619.6 Q 650.3 617.9, 649.5 617.0 Q 648.8 616.1, 647.4 616.1 Q 646.0 616.1, 645.3 617.0 Q 644.5 617.9, 644.5 619.6 Q 644.5 621.5, 645.3 622.4 Q 646.0 623.3, 647.4 623.3 " fill="#FF0000"/>
<path class="atom-2" d="M 653.0 615.2 L 654.2 615.2 L 654.2 619.0 L 658.8 619.0 L 658.8 615.2 L 660.0 615.2 L 660.0 624.2 L 658.8 624.2 L 658.8 620.0 L 654.2 620.0 L 654.2 624.2 L 653.0 624.2 L 653.0 615.2 " fill="#FF0000"/>
<path class="legend" d="M 608.1 728.5 L 610.2 726.4 L 607.5 725.8 L 607.9 724.4 L 610.4 725.7 L 610.1 722.9 L 611.6 722.9 L 611.1 725.7 L 613.7 724.5 L 614.2 725.8 L 611.4 726.3 L 613.4 728.5 L 612.1 729.4 L 610.8 726.7 L 609.4 729.4 L 608.1 728.5 " fill="#000000"/>
<path class="legend" d="M 615.8 730.2 Q 615.8 726.7, 617.4 724.8 Q 619.1 723.0, 622.2 723.0 Q 625.1 723.0, 626.7 725.0 L 625.4 726.1 Q 624.2 724.6, 622.2 724.6 Q 620.1 724.6, 618.9 726.0 Q 617.8 727.5, 617.8 730.2 Q 617.8 733.0, 619.0 734.4 Q 620.2 735.9, 622.4 735.9 Q 624.0 735.9, 625.8 734.9 L 626.4 736.4 Q 625.6 736.9, 624.5 737.2 Q 623.4 737.5, 622.2 737.5 Q 619.1 737.5, 617.4 735.6 Q 615.8 733.7, 615.8 730.2 " fill="#000000"/>
<path class="legend" d="M 628.5 730.2 Q 628.5 726.8, 630.2 724.9 Q 631.9 723.0, 635.0 723.0 Q 638.2 723.0, 639.9 724.9 Q 641.5 726.8, 641.5 730.2 Q 641.5 733.6, 639.8 735.6 Q 638.1 737.5, 635.0 737.5 Q 631.9 737.5, 630.2 735.6 Q 628.5 733.6, 628.5 730.2 M 635.0 735.9 Q 637.2 735.9, 638.4 734.5 Q 639.5 733.0, 639.5 730.2 Q 639.5 727.4, 638.4 726.0 Q 637.2 724.6, 635.0 724.6 Q 632.9 724.6, 631.7 726.0 Q 630.5 727.4, 630.5 730.2 Q 630.5 733.0, 631.7 734.5 Q 632.9 735.9, 635.0 735.9 " fill="#000000"/>
<path class="bond-0 atom-0 atom-1" d="M 822.9,641.8 L 835.1,634.8" style="fill:none;fill-rule:evenodd;stroke:#191919;stroke-width:2.0px;stroke-linecap:butt;stroke-linejoin:miter;stroke-opacity:1"/>
<path class="bond-0 atom-0 atom-1" d="M 835.1,634.8 L 847.4,627.7" style="fill:none;fill-rule:evenodd;stroke:#000000;stroke-width:2.0px;stroke-linecap:butt;stroke-linejoin:miter;stroke-opacity:1"/>
<path class="bond-1 atom-1 atom-2" d="M 847.4,627.7 L 847.4,595.8" style="fill:none;fill-rule:evenodd;stroke:#000000;stroke-width:2.0px;stroke-linecap:butt;stroke-linejoin:miter;stroke-opacity:1"/>
<path class="bond-1 atom-1 atom-2" d="M 852.1,624.9 L 852.1,598.5" style="fill:none;fill-rule:evenodd;stroke:#000000;stroke-width:2.0px;stroke-linecap:butt;stroke-linejoin:miter;stroke-opacity:1"/>
<path class="bond-2 atom-2 atom-3" d="M 847.4,595.8 L 875.0,579.8" style="fill:none;fill-rule:evenodd;stroke:#000000;stroke-width:2.0px;stroke-linecap:butt;stroke-linejoin:miter;stroke-opacity:1"/>
<path class="bond-3 atom-3 atom-4" d="M 875.0,579.8 L 902.6,595.8" style="fill:none;fill-rule:evenodd;stroke:#000000;stroke-width:2.0px;stroke-linecap:butt;stroke-linejoin:miter;stroke-opacity:1"/>
<path class="bond-3 atom-3 atom-4" d="M 875.0,585.4 L 897.9,598.5" style="fill:none;fill-rule:evenodd;stroke:#000000;stroke-width:2.0px;stroke-linecap:butt;stroke-linejoin:miter;stroke-opacity:1"/>
<path class="bond-4 atom-4 atom-5" d="M 902.6,595.8 L 902.6,627.7" style="fill:none;fill-rule:evenodd;stroke:#000000;stroke-width:2.0px;stroke-linecap:butt;stroke-linejoin:miter;stroke-opacity:1"/>
<path class="bond-5 atom-5 atom-6" d="M 902.6,627.7 L 914.9,634.8" style="fill:none;fill-rule:evenodd;stroke:#000000;stroke-width:2.0px;stroke-linecap:butt;stroke-linejoin:miter;stroke-opacity:1"/>
<path class="bond-5 atom-5 atom-6" d="M 914.9,634.8 L 927.1,641.8" style="fill:none;fill-rule:evenodd;stroke:#191919;stroke-width:2.0px;stroke-linecap:butt;stroke-linejoin:miter;stroke-opacity:1"/>
<path class="bond-6 atom-5 atom-7" d="M 902.6,627.7 L 891.1,634.4" style="fill:none;fill-rule:evenodd;stroke:#000000;stroke-width:2.0px;stroke-linecap:butt;stroke-linejoin:miter;stroke-opacity:1"/>
<path class="bond-6 atom-5 atom-7" d="M 891.1,634.4 L 879.5,641.1" style="fill:none;fill-rule:evenodd;stroke:#0000FF;stroke-width:2.0px;stroke-linecap:butt;stroke-linejoin:miter;stroke-opacity:1"/>
<path class="bond-6 atom-5 atom-7" d="M 897.9,624.9 L 887.5,630.9" style="fill:none;fill-rule:evenodd;stroke:#000000;stroke-width:2.0px;stroke-linecap:butt;stroke-linejoin:miter;stroke-opacity:1"/>
<path class="bond-6 atom-5 atom-7" d="M 887.5,630.9 L 877.1,636.9" style="fill:none;fill-rule:evenodd;stroke:#0000FF;stroke-width:2.0px;stroke-linecap:butt;stroke-linejoin:miter;stroke-opacity:1"/>
<path class="bond-7 atom-7 atom-1" d="M 870.5,641.1 L 858.9,634.4" style="fill:none;fill-rule:evenodd;stroke:#0000FF;stroke-width:2.0px;stroke-linecap:butt;stroke-linejoin:miter;stroke-opacity:1"/>
<path class="bond-7 atom-7 atom-1" d="M 858.9,634.4 L 847.4,627.7" style="fill:none;fill-rule:evenodd;stroke:#000000;stroke-width:2.0px;stroke-linecap:butt;stroke-linejoin:miter;stroke-opacity:1"/>
<path d="M 847.4,597.4 L 847.4,595.8 L 848.7,595.0" style="fill:none;stroke:#000000;stroke-width:2.0px;stroke-linecap:butt;stroke-linejoin:miter;stroke-opacity:1;"/>
<path d="M 873.6,580.6 L 875.0,579.8 L 876.4,580.6" style="fill:none;stroke:#000000;stroke-width:2.0px;stroke-linecap:butt;stroke-linejoin:miter;stroke-opacity:1;"/>
<path d="M 901.3,595.0 L 902.6,595.8 L 902.6,597.4" style="fill:none;stroke:#000000;stroke-width:2.0px;stroke-linecap:butt;stroke-linejoin:miter;stroke-opacity:1;"/>
<path class="atom-0" d="M 818.0 642.6 L 819.3 641.3 L 817.6 640.9 L 817.8 640.0 L 819.5 640.8 L 819.2 639.1 L 820.2 639.1 L 819.9 640.8 L 821.6 640.1 L 821.9 640.9 L 820.1 641.3 L 821.3 642.6 L 820.6 643.2 L 819.7 641.5 L 818.8 643.2 L 818.0 642.6 " fill="#191919"/>
<path class="atom-6" d="M 928.6 642.6 L 929.9 641.3 L 928.1 640.9 L 928.4 640.0 L 930.0 640.8 L 929.8 639.1 L 930.8 639.1 L 930.5 640.8 L 932.1 640.1 L 932.4 640.9 L 930.6 641.3 L 931.9 642.6 L 931.1 643.2 L 930.2 641.5 L 929.4 643.2 L 928.6 642.6 " fill="#191919"/>
<path class="atom-7" d="M 873.0 639.1 L 876.0 643.9 Q 876.3 644.4, 876.7 645.3 Q 877.2 646.1, 877.2 646.2 L 877.2 639.1 L 878.4 639.1 L 878.4 648.2 L 877.2 648.2 L 874.0 642.9 Q 873.6 642.3, 873.2 641.6 Q 872.9 640.9, 872.7 640.7 L 872.7 648.2 L 871.6 648.2 L 871.6 639.1 L 873.0 639.1 " fill="#0000FF"/>
<path class="legend" d="M 822.1 724.3 L 824.2 722.2 L 821.4 721.6 L 821.8 720.2 L 824.4 721.5 L 824.0 718.7 L 825.5 718.7 L 825.1 721.4 L 827.7 720.2 L 828.1 721.6 L 825.3 722.1 L 827.3 724.3 L 826.1 725.1 L 824.7 722.5 L 823.3 725.1 L 822.1 724.3 " fill="#000000"/>
<path class="legend" d="M 829.5 727.9 Q 829.5 725.4, 830.7 724.0 Q 831.9 722.6, 834.4 722.6 Q 836.7 722.6, 837.9 724.3 L 836.7 725.2 Q 836.2 724.7, 835.6 724.4 Q 835.1 724.1, 834.4 724.1 Q 833.0 724.1, 832.2 725.1 Q 831.4 726.0, 831.4 727.9 Q 831.4 729.8, 832.2 730.8 Q 833.0 731.7, 834.5 731.7 Q 835.3 731.7, 835.9 731.6 Q 836.5 731.4, 837.2 731.0 L 837.7 732.3 Q 836.3 733.2, 834.4 733.2 Q 831.9 733.2, 830.7 731.8 Q 829.5 730.4, 829.5 727.9 " fill="#000000"/>
<path class="legend" d="M 840.0 731.5 L 843.1 731.5 L 843.1 720.9 L 839.6 721.9 L 839.2 720.8 L 843.5 718.8 L 844.9 719.1 L 844.9 731.5 L 847.7 731.5 L 847.7 733.1 L 840.0 733.1 L 840.0 731.5 " fill="#000000"/>
<path class="legend" d="M 849.3 727.9 Q 849.3 725.4, 850.5 724.0 Q 851.8 722.6, 854.2 722.6 Q 856.6 722.6, 857.8 724.3 L 856.5 725.2 Q 856.0 724.7, 855.5 724.4 Q 854.9 724.1, 854.2 724.1 Q 852.8 724.1, 852.0 725.1 Q 851.2 726.0, 851.2 727.9 Q 851.2 729.8, 852.0 730.8 Q 852.8 731.7, 854.3 731.7 Q 855.2 731.7, 855.8 731.6 Q 856.3 731.4, 857.1 731.0 L 857.6 732.3 Q 856.1 733.2, 854.2 733.2 Q 851.8 733.2, 850.5 731.8 Q 849.3 730.4, 849.3 727.9 " fill="#000000"/>
<path class="legend" d="M 859.0 727.9 Q 859.0 725.4, 860.3 724.0 Q 861.5 722.6, 863.9 722.6 Q 866.3 722.6, 867.5 724.3 L 866.2 725.2 Q 865.8 724.7, 865.2 724.4 Q 864.7 724.1, 863.9 724.1 Q 862.5 724.1, 861.7 725.1 Q 860.9 726.0, 860.9 727.9 Q 860.9 729.8, 861.7 730.8 Q 862.6 731.7, 864.1 731.7 Q 864.9 731.7, 865.5 731.6 Q 866.1 731.4, 866.8 731.0 L 867.3 732.3 Q 865.8 733.2, 863.9 733.2 Q 861.5 733.2, 860.3 731.8 Q 859.0 730.4, 859.0 727.9 " fill="#000000"/>
<path class="legend" d="M 868.7 727.9 Q 868.7 725.4, 870.0 724.0 Q 871.2 722.6, 873.7 722.6 Q 876.0 722.6, 877.2 724.3 L 876.0 725.2 Q 875.5 724.7, 874.9 724.4 Q 874.4 724.1, 873.7 724.1 Q 872.2 724.1, 871.4 725.1 Q 870.7 726.0, 870.7 727.9 Q 870.7 729.8, 871.5 730.8 Q 872.3 731.7, 873.8 731.7 Q 874.6 731.7, 875.2 731.6 Q 875.8 731.4, 876.5 731.0 L 877.0 732.3 Q 875.5 733.2, 873.6 733.2 Q 871.2 733.2, 870.0 731.8 Q 868.7 730.4, 868.7 727.9 " fill="#000000"/>
<path class="legend" d="M 878.4 727.9 Q 878.4 725.4, 879.7 724.0 Q 880.9 722.6, 883.4 722.6 Q 885.7 722.6, 886.9 724.3 L 885.7 725.2 Q 885.2 724.7, 884.6 724.4 Q 884.1 724.1, 883.4 724.1 Q 881.9 724.1, 881.1 725.1 Q 880.4 726.0, 880.4 727.9 Q 880.4 729.8, 881.2 730.8 Q 882.0 731.7, 883.5 731.7 Q 884.3 731.7, 884.9 731.6 Q 885.5 731.4, 886.2 731.0 L 886.7 732.3 Q 885.2 733.2, 883.3 733.2 Q 880.9 733.2, 879.7 731.8 Q 878.4 730.4, 878.4 727.9 " fill="#000000"/>
<path class="legend" d="M 888.2 727.4 Q 888.2 724.5, 889.0 722.1 Q 889.8 719.8, 891.4 717.2 L 892.6 717.9 Q 891.3 720.3, 890.6 722.5 Q 890.0 724.6, 890.0 727.4 Q 890.0 730.1, 890.6 732.2 Q 891.3 734.3, 892.6 736.8 L 891.4 737.5 Q 889.8 735.0, 889.0 732.6 Q 888.2 730.3, 888.2 727.4 " fill="#000000"/>
<path class="legend" d="M 894.5 724.3 L 896.6 722.2 L 893.8 721.6 L 894.2 720.2 L 896.8 721.5 L 896.4 718.7 L 897.9 718.7 L 897.5 721.4 L 900.1 720.2 L 900.5 721.6 L 897.7 722.1 L 899.7 724.3 L 898.5 725.1 L 897.1 722.5 L 895.7 725.1 L 894.5 724.3 " fill="#000000"/>
<path class="legend" d="M 906.3 727.4 Q 906.3 730.3, 905.4 732.6 Q 904.6 735.0, 903.0 737.5 L 901.9 736.8 Q 903.2 734.3, 903.8 732.2 Q 904.5 730.1, 904.5 727.4 Q 904.5 724.6, 903.8 722.5 Q 903.2 720.3, 901.9 717.9 L 903.0 717.2 Q 904.6 719.8, 905.4 722.1 Q 906.3 724.5, 906.3 727.4 " fill="#000000"/>
<path class="legend" d="M 913.4 722.6 Q 915.0 722.6, 915.9 723.5 Q 916.8 724.5, 916.8 726.3 L 916.8 733.1 L 914.9 733.1 L 914.9 726.4 Q 914.9 725.2, 914.4 724.6 Q 913.9 724.1, 912.9 724.1 Q 912.0 724.1, 911.2 724.5 Q 910.4 724.9, 909.9 725.7 L 909.9 733.1 L 908.0 733.1 L 908.0 722.8 L 909.6 722.8 L 909.8 724.2 Q 911.2 722.6, 913.4 722.6 " fill="#000000"/>
<path class="legend" d="M 919.8 731.5 L 922.9 731.5 L 922.9 720.9 L 919.5 721.9 L 919.1 720.8 L 923.4 718.8 L 924.8 719.1 L 924.8 731.5 L 927.6 731.5 L 927.6 733.1 L 919.8 733.1 L 919.8 731.5 " fill="#000000"/>
<path d="M 187.5,62.5 L 187.5,740.0" style="fill:none;fill-rule:evenodd;stroke:#666666;stroke-width:4.0px;stroke-linecap:butt;stroke-linejoin:miter;stroke-opacity:1"/>
<path d="M 187.5,740.0 L 183.6,733.2" style="fill:none;fill-rule:evenodd;stroke:#666666;stroke-width:4.0px;stroke-linecap:butt;stroke-linejoin:miter;stroke-opacity:1"/>
<path d="M 187.5,740.0 L 191.4,733.2" style="fill:none;fill-rule:evenodd;stroke:#666666;stroke-width:4.0px;stroke-linecap:butt;stroke-linejoin:miter;stroke-opacity:1"/>
<path d="M 19.1 367.9 L 21.0 367.9 L 21.0 382.1 L 19.1 382.1 L 19.1 367.9 " fill="#000000"/>
<path d="M 28.8 371.7 Q 30.5 371.7, 31.3 372.6 Q 32.2 373.5, 32.2 375.3 L 32.2 382.1 L 30.3 382.1 L 30.3 375.4 Q 30.3 374.2, 29.9 373.7 Q 29.4 373.1, 28.4 373.1 Q 27.4 373.1, 26.6 373.6 Q 25.9 374.0, 25.4 374.8 L 25.4 382.1 L 23.5 382.1 L 23.5 371.8 L 25.0 371.8 L 25.2 373.3 Q 26.6 371.7, 28.8 371.7 " fill="#000000"/>
<path d="M 34.5 376.9 Q 34.5 374.5, 35.7 373.1 Q 36.9 371.7, 39.4 371.7 Q 41.7 371.7, 42.9 373.4 L 41.7 374.3 Q 41.2 373.7, 40.6 373.4 Q 40.1 373.1, 39.4 373.1 Q 38.0 373.1, 37.2 374.1 Q 36.4 375.1, 36.4 376.9 Q 36.4 378.9, 37.2 379.8 Q 38.0 380.8, 39.5 380.8 Q 40.3 380.8, 40.9 380.6 Q 41.5 380.4, 42.2 380.1 L 42.7 381.4 Q 41.3 382.2, 39.4 382.2 Q 36.9 382.2, 35.7 380.8 Q 34.5 379.4, 34.5 376.9 " fill="#000000"/>
<path d="M 45.6 371.8 L 45.9 373.2 Q 46.9 371.7, 48.7 371.7 Q 49.3 371.7, 50.0 371.9 L 49.7 373.5 Q 48.9 373.3, 48.4 373.3 Q 47.5 373.3, 47.0 373.7 Q 46.4 374.0, 46.0 374.8 L 46.0 382.1 L 44.1 382.1 L 44.1 371.8 L 45.6 371.8 " fill="#000000"/>
<path d="M 51.0 376.9 Q 51.0 374.4, 52.3 373.1 Q 53.5 371.7, 55.8 371.7 Q 58.1 371.7, 59.1 373.0 Q 60.1 374.4, 60.1 376.9 L 60.1 377.2 L 52.9 377.2 Q 53.0 378.9, 53.8 379.9 Q 54.5 380.8, 56.0 380.8 Q 56.8 380.8, 57.5 380.6 Q 58.3 380.4, 59.2 380.0 L 59.7 381.3 Q 58.7 381.8, 57.8 382.1 Q 56.9 382.3, 55.9 382.3 Q 53.6 382.3, 52.3 380.9 Q 51.0 379.5, 51.0 376.9 M 55.8 373.1 Q 54.7 373.1, 53.9 373.8 Q 53.2 374.5, 53.0 375.8 L 58.1 375.8 Q 58.0 374.4, 57.4 373.8 Q 56.9 373.1, 55.8 373.1 " fill="#000000"/>
<path d="M 61.6 379.3 Q 61.6 377.7, 62.9 376.8 Q 64.2 375.9, 66.6 375.9 L 68.1 375.9 L 68.1 375.5 Q 68.1 374.2, 67.6 373.7 Q 67.1 373.1, 65.8 373.1 Q 65.0 373.1, 64.3 373.3 Q 63.7 373.4, 62.7 373.9 L 62.1 372.6 Q 64.0 371.7, 65.8 371.7 Q 68.0 371.7, 69.0 372.6 Q 70.0 373.5, 70.0 375.5 L 70.0 382.1 L 68.6 382.1 Q 68.5 382.0, 68.5 381.7 Q 68.4 381.4, 68.3 380.9 Q 66.9 382.4, 64.9 382.4 Q 63.4 382.4, 62.5 381.5 Q 61.6 380.7, 61.6 379.3 M 63.4 379.3 Q 63.4 380.1, 63.9 380.5 Q 64.4 380.9, 65.3 380.9 Q 66.1 380.9, 66.9 380.5 Q 67.6 380.1, 68.1 379.5 L 68.1 377.3 L 66.7 377.3 Q 65.1 377.3, 64.3 377.8 Q 63.4 378.3, 63.4 379.3 " fill="#000000"/>
<path d="M 72.8 380.0 Q 73.7 380.4, 74.4 380.6 Q 75.0 380.7, 75.7 380.7 Q 76.6 380.7, 77.1 380.4 Q 77.7 380.0, 77.7 379.2 Q 77.7 378.8, 77.4 378.5 Q 77.1 378.2, 76.8 378.1 Q 76.5 377.9, 75.6 377.6 Q 75.4 377.6, 74.5 377.2 Q 73.6 376.9, 73.1 376.2 Q 72.6 375.6, 72.6 374.6 Q 72.6 373.3, 73.6 372.5 Q 74.5 371.7, 76.4 371.7 Q 77.2 371.7, 77.8 371.8 Q 78.5 372.0, 79.3 372.3 L 78.8 373.8 Q 78.1 373.5, 77.6 373.4 Q 77.0 373.2, 76.4 373.2 Q 75.4 373.2, 75.0 373.6 Q 74.5 373.9, 74.5 374.6 Q 74.5 375.1, 74.9 375.4 Q 75.2 375.7, 76.1 375.9 Q 76.3 376.0, 76.5 376.1 L 77.0 376.3 Q 77.8 376.6, 78.3 376.8 Q 78.8 377.1, 79.2 377.7 Q 79.5 378.2, 79.5 379.2 Q 79.5 380.7, 78.5 381.5 Q 77.4 382.3, 75.8 382.3 Q 74.8 382.3, 73.9 382.1 Q 73.1 381.9, 72.3 381.5 L 72.8 380.0 " fill="#000000"/>
<path d="M 81.3 367.9 L 83.1 367.9 L 83.1 369.7 L 81.3 369.7 L 81.3 367.9 M 81.3 371.8 L 83.1 371.8 L 83.1 382.1 L 81.3 382.1 L 81.3 371.8 " fill="#000000"/>
<path d="M 90.9 371.7 Q 92.6 371.7, 93.4 372.6 Q 94.3 373.5, 94.3 375.3 L 94.3 382.1 L 92.4 382.1 L 92.4 375.4 Q 92.4 374.2, 91.9 373.7 Q 91.5 373.1, 90.4 373.1 Q 89.5 373.1, 88.7 373.6 Q 87.9 374.0, 87.4 374.8 L 87.4 382.1 L 85.6 382.1 L 85.6 371.8 L 87.1 371.8 L 87.3 373.3 Q 88.7 371.7, 90.9 371.7 " fill="#000000"/>
<path d="M 105.9 371.8 L 105.9 382.7 Q 105.9 387.1, 101.2 387.1 Q 98.9 387.1, 96.9 386.1 L 97.6 384.7 Q 98.6 385.2, 99.4 385.4 Q 100.2 385.7, 101.2 385.7 Q 102.7 385.7, 103.3 385.0 Q 104.0 384.3, 104.0 382.8 L 104.0 380.9 Q 102.9 382.3, 101.1 382.3 Q 98.9 382.3, 97.7 380.9 Q 96.5 379.6, 96.5 377.1 Q 96.5 374.6, 97.9 373.1 Q 99.4 371.7, 101.8 371.7 Q 103.1 371.7, 104.3 372.0 L 104.4 371.8 L 105.9 371.8 M 101.2 380.8 Q 102.2 380.8, 103.0 380.2 Q 103.7 379.7, 104.0 378.6 L 104.0 373.4 Q 103.0 373.1, 101.8 373.1 Q 100.3 373.1, 99.4 374.2 Q 98.5 375.2, 98.5 377.1 Q 98.5 378.9, 99.2 379.9 Q 99.9 380.8, 101.2 380.8 " fill="#000000"/>
<path d="M -2.1 393.8 L -2.1 392.3 L -0.3 392.3 L -0.3 390.8 Q -0.3 389.0, 0.7 388.2 Q 1.6 387.4, 3.0 387.4 Q 3.7 387.4, 4.3 387.5 Q 4.8 387.7, 5.5 387.9 L 4.9 389.3 Q 4.0 388.9, 3.2 388.9 Q 2.5 388.9, 2.0 389.4 Q 1.6 389.8, 1.6 390.7 L 1.6 392.3 L 4.8 392.3 L 4.8 393.8 L 1.6 393.8 L 1.6 405.7 L -0.3 405.7 L -0.3 393.8 L -2.1 393.8 " fill="#000000"/>
<path d="M 7.3 392.3 L 7.5 393.7 Q 8.6 392.1, 10.4 392.1 Q 10.9 392.1, 11.7 392.3 L 11.4 394.0 Q 10.5 393.8, 10.0 393.8 Q 9.2 393.8, 8.6 394.2 Q 8.1 394.5, 7.7 395.3 L 7.7 402.6 L 5.8 402.6 L 5.8 392.3 L 7.3 392.3 " fill="#000000"/>
<path d="M 12.8 399.8 Q 12.8 398.2, 14.1 397.3 Q 15.5 396.4, 17.9 396.4 L 19.4 396.4 L 19.4 396.0 Q 19.4 394.7, 18.9 394.2 Q 18.3 393.6, 17.1 393.6 Q 16.2 393.6, 15.6 393.8 Q 15.0 393.9, 14.0 394.4 L 13.4 393.1 Q 15.3 392.1, 17.1 392.1 Q 19.3 392.1, 20.3 393.1 Q 21.3 394.0, 21.3 396.0 L 21.3 402.6 L 19.8 402.6 Q 19.8 402.5, 19.7 402.2 Q 19.7 401.9, 19.6 401.4 Q 18.1 402.8, 16.2 402.8 Q 14.7 402.8, 13.7 402.0 Q 12.8 401.2, 12.8 399.8 M 14.7 399.8 Q 14.7 400.5, 15.2 401.0 Q 15.7 401.4, 16.6 401.4 Q 17.4 401.4, 18.1 401.0 Q 18.9 400.6, 19.4 400.0 L 19.4 397.8 L 18.0 397.8 Q 16.4 397.8, 15.5 398.3 Q 14.7 398.8, 14.7 399.8 " fill="#000000"/>
<path d="M 33.0 392.3 L 33.0 403.2 Q 33.0 407.6, 28.3 407.6 Q 26.0 407.6, 24.0 406.6 L 24.7 405.2 Q 25.7 405.7, 26.5 405.9 Q 27.3 406.1, 28.3 406.1 Q 29.8 406.1, 30.4 405.5 Q 31.1 404.8, 31.1 403.2 L 31.1 401.4 Q 30.0 402.8, 28.2 402.8 Q 26.0 402.8, 24.8 401.4 Q 23.6 400.1, 23.6 397.6 Q 23.6 395.0, 25.0 393.6 Q 26.5 392.1, 28.9 392.1 Q 30.2 392.1, 31.4 392.5 L 31.5 392.3 L 33.0 392.3 M 28.3 401.3 Q 29.3 401.3, 30.1 400.7 Q 30.8 400.1, 31.1 399.1 L 31.1 393.9 Q 30.1 393.6, 28.9 393.6 Q 27.4 393.6, 26.5 394.7 Q 25.6 395.7, 25.6 397.6 Q 25.6 399.4, 26.3 400.3 Q 27.0 401.3, 28.3 401.3 " fill="#000000"/>
<path d="M 47.3 392.1 Q 49.1 392.1, 50.0 393.1 Q 50.8 394.0, 50.8 395.8 L 50.8 402.6 L 49.0 402.6 L 49.0 395.9 Q 49.0 394.7, 48.5 394.2 Q 48.0 393.6, 47.0 393.6 Q 46.1 393.6, 45.3 394.1 Q 44.5 394.5, 44.1 395.2 Q 44.1 395.4, 44.1 395.8 L 44.1 402.6 L 42.2 402.6 L 42.2 395.9 Q 42.2 394.7, 41.7 394.2 Q 41.3 393.6, 40.2 393.6 Q 39.3 393.6, 38.6 394.1 Q 37.8 394.5, 37.3 395.2 L 37.3 402.6 L 35.5 402.6 L 35.5 392.3 L 37.0 392.3 L 37.2 393.7 Q 38.5 392.1, 40.6 392.1 Q 43.0 392.1, 43.8 393.9 Q 45.1 392.1, 47.3 392.1 " fill="#000000"/>
<path d="M 53.2 397.4 Q 53.2 394.9, 54.5 393.5 Q 55.7 392.1, 58.0 392.1 Q 60.3 392.1, 61.3 393.5 Q 62.3 394.8, 62.3 397.4 L 62.3 397.7 L 55.1 397.7 Q 55.2 399.4, 55.9 400.4 Q 56.7 401.3, 58.2 401.3 Q 59.0 401.3, 59.7 401.1 Q 60.5 400.9, 61.4 400.5 L 61.9 401.8 Q 60.9 402.3, 60.0 402.5 Q 59.0 402.8, 58.1 402.8 Q 55.8 402.8, 54.5 401.4 Q 53.2 400.0, 53.2 397.4 M 58.0 393.6 Q 56.8 393.6, 56.1 394.3 Q 55.4 395.0, 55.2 396.3 L 60.3 396.3 Q 60.2 394.9, 59.6 394.3 Q 59.1 393.6, 58.0 393.6 " fill="#000000"/>
<path d="M 69.2 392.1 Q 70.9 392.1, 71.8 393.1 Q 72.6 394.0, 72.6 395.8 L 72.6 402.6 L 70.8 402.6 L 70.8 395.9 Q 70.8 394.7, 70.3 394.2 Q 69.8 393.6, 68.8 393.6 Q 67.8 393.6, 67.0 394.1 Q 66.3 394.5, 65.8 395.2 L 65.8 402.6 L 63.9 402.6 L 63.9 392.3 L 65.4 392.3 L 65.6 393.8 Q 67.0 392.1, 69.2 392.1 " fill="#000000"/>
<path d="M 75.0 393.8 L 75.0 392.3 L 77.0 392.3 L 77.3 389.3 L 78.7 389.3 L 78.7 392.3 L 81.8 392.3 L 81.8 393.8 L 78.7 393.8 L 78.7 399.4 Q 78.7 401.2, 80.2 401.2 Q 80.8 401.2, 81.7 400.9 L 82.0 402.3 Q 80.9 402.7, 79.8 402.7 Q 78.5 402.7, 77.6 401.9 Q 76.8 401.1, 76.8 399.5 L 76.8 393.8 L 75.0 393.8 " fill="#000000"/>
<path d="M 83.3 399.8 Q 83.3 398.2, 84.6 397.3 Q 85.9 396.4, 88.4 396.4 L 89.9 396.4 L 89.9 396.0 Q 89.9 394.7, 89.3 394.2 Q 88.8 393.6, 87.5 393.6 Q 86.7 393.6, 86.1 393.8 Q 85.4 393.9, 84.4 394.4 L 83.9 393.1 Q 85.8 392.1, 87.6 392.1 Q 89.8 392.1, 90.8 393.1 Q 91.8 394.0, 91.8 396.0 L 91.8 402.6 L 90.3 402.6 Q 90.3 402.5, 90.2 402.2 Q 90.2 401.9, 90.0 401.4 Q 88.6 402.8, 86.7 402.8 Q 85.1 402.8, 84.2 402.0 Q 83.3 401.2, 83.3 399.8 M 85.2 399.8 Q 85.2 400.5, 85.7 401.0 Q 86.1 401.4, 87.0 401.4 Q 87.8 401.4, 88.6 401.0 Q 89.4 400.6, 89.9 400.0 L 89.9 397.8 L 88.5 397.8 Q 86.8 397.8, 86.0 398.3 Q 85.2 398.8, 85.2 399.8 " fill="#000000"/>
<path d="M 94.1 393.8 L 94.1 392.3 L 96.1 392.3 L 96.4 389.3 L 97.8 389.3 L 97.8 392.3 L 100.9 392.3 L 100.9 393.8 L 97.8 393.8 L 97.8 399.4 Q 97.8 401.2, 99.3 401.2 Q 99.9 401.2, 100.8 400.9 L 101.1 402.3 Q 100.0 402.7, 99.0 402.7 Q 97.6 402.7, 96.8 401.9 Q 95.9 401.1, 95.9 399.5 L 95.9 393.8 L 94.1 393.8 " fill="#000000"/>
<path d="M 102.4 388.4 L 104.3 388.4 L 104.3 390.2 L 102.4 390.2 L 102.4 388.4 M 102.4 392.3 L 104.3 392.3 L 104.3 402.6 L 102.4 402.6 L 102.4 392.3 " fill="#000000"/>
<path d="M 106.8 397.4 Q 106.8 394.9, 108.1 393.5 Q 109.4 392.1, 111.7 392.1 Q 114.0 392.1, 115.3 393.5 Q 116.6 394.9, 116.6 397.4 Q 116.6 399.9, 115.3 401.4 Q 114.0 402.8, 111.7 402.8 Q 109.4 402.8, 108.1 401.4 Q 106.8 399.9, 106.8 397.4 M 108.7 397.4 Q 108.7 399.3, 109.5 400.3 Q 110.3 401.3, 111.7 401.3 Q 113.1 401.3, 113.9 400.3 Q 114.7 399.3, 114.7 397.4 Q 114.7 395.6, 113.9 394.6 Q 113.1 393.6, 111.7 393.6 Q 110.3 393.6, 109.5 394.6 Q 108.7 395.6, 108.7 397.4 " fill="#000000"/>
<path d="M 123.7 392.1 Q 125.3 392.1, 126.2 393.1 Q 127.1 394.0, 127.1 395.8 L 127.1 402.6 L 125.2 402.6 L 125.2 395.9 Q 125.2 394.7, 124.7 394.2 Q 124.2 393.6, 123.2 393.6 Q 122.3 393.6, 121.5 394.1 Q 120.7 394.5, 120.2 395.2 L 120.2 402.6 L 118.3 402.6 L 118.3 392.3 L 119.9 392.3 L 120.1 393.8 Q 121.5 392.1, 123.7 392.1 " fill="#000000"/>
<path d="M 375.0,250.0 L 375.0,312.5" style="fill:none;fill-rule:evenodd;stroke:#666666;stroke-width:4.0px;stroke-linecap:butt;stroke-linejoin:miter;stroke-opacity:1"/>
<path d="M 375.0,312.5 L 369.2,302.5" style="fill:none;fill-rule:evenodd;stroke:#666666;stroke-width:4.0px;stroke-linecap:butt;stroke-linejoin:miter;stroke-opacity:1"/>
<path d="M 375.0,312.5 L 380.8,302.5" style="fill:none;fill-rule:evenodd;stroke:#666666;stroke-width:4.0px;stroke-linecap:butt;stroke-linejoin:miter;stroke-opacity:1"/>
<path d="M 375.0,250.0 L 625.0,312.5" style="fill:none;fill-rule:evenodd;stroke:#666666;stroke-width:4.0px;stroke-linecap:butt;stroke-linejoin:miter;stroke-opacity:1"/>
<path d="M 625.0,312.5 L 613.9,315.7" style="fill:none;fill-rule:evenodd;stroke:#666666;stroke-width:4.0px;stroke-linecap:butt;stroke-linejoin:miter;stroke-opacity:1"/>
<path d="M 625.0,312.5 L 616.7,304.5" style="fill:none;fill-rule:evenodd;stroke:#666666;stroke-width:4.0px;stroke-linecap:butt;stroke-linejoin:miter;stroke-opacity:1"/>
<path d="M 625.0,500.0 L 625.0,562.5" style="fill:none;fill-rule:evenodd;stroke:#666666;stroke-width:4.0px;stroke-linecap:butt;stroke-linejoin:miter;stroke-opacity:1"/>
<path d="M 625.0,562.5 L 619.2,552.5" style="fill:none;fill-rule:evenodd;stroke:#666666;stroke-width:4.0px;stroke-linecap:butt;stroke-linejoin:miter;stroke-opacity:1"/>
<path d="M 625.0,562.5 L 630.8,552.5" style="fill:none;fill-rule:evenodd;stroke:#666666;stroke-width:4.0px;stroke-linecap:butt;stroke-linejoin:miter;stroke-opacity:1"/>
<path d="M 625.0,500.0 L 875.0,562.5" style="fill:none;fill-rule:evenodd;stroke:#666666;stroke-width:4.0px;stroke-linecap:butt;stroke-linejoin:miter;stroke-opacity:1"/>
<path d="M 875.0,562.5 L 863.9,565.7" style="fill:none;fill-rule:evenodd;stroke:#666666;stroke-width:4.0px;stroke-linecap:butt;stroke-linejoin:miter;stroke-opacity:1"/>
<path d="M 875.0,562.5 L 866.7,554.5" style="fill:none;fill-rule:evenodd;stroke:#666666;stroke-width:4.0px;stroke-linecap:butt;stroke-linejoin:miter;stroke-opacity:1"/>
</svg>